<?xml version="1.0" standalone="no"?>
<!DOCTYPE svg PUBLIC "-//W3C//DTD SVG 20010904//EN"
 "http://www.w3.org/TR/2001/REC-SVG-20010904/DTD/svg10.dtd">
<svg version="1.0" xmlns="http://www.w3.org/2000/svg"
 width="1600.000000pt" height="1200.000000pt" viewBox="0 0 1600.000000 1200.000000"
 preserveAspectRatio="xMidYMid meet">

<g transform="translate(0.000000,1200.000000) scale(0.100000,-0.100000)"
fill="currentColor" stroke="none">
<path d="M4250 9241 c0 -5 57 -9 128 -10 70 -1 179 -4 243 -7 102 -6 117 -5
122 10 6 15 -16 16 -243 16 -141 0 -250 -4 -250 -9z"/>
<path d="M6580 9239 c0 -7 35 -10 105 -8 58 2 105 7 105 11 0 5 -47 8 -105 8
-68 0 -105 -4 -105 -11z"/>
<path d="M6800 9240 c0 -5 17 -10 38 -11 119 -3 180 -9 205 -18 16 -6 45 -11
66 -11 21 0 55 -9 77 -20 l39 -19 -69 6 c-48 4 -67 3 -63 -4 4 -7 24 -9 50 -5
38 5 41 4 29 -11 -8 -9 -11 -21 -8 -26 9 -14 -33 -41 -53 -34 -13 5 -14 3 -3
-8 19 -21 14 -29 -18 -29 -16 0 -30 -4 -30 -9 0 -14 41 -21 61 -11 22 13 52 2
45 -16 -4 -10 5 -14 32 -14 21 0 42 -4 48 -9 5 -5 25 -14 44 -19 203 -60 491
-228 637 -371 23 -22 45 -36 48 -31 3 5 5 65 3 132 -1 88 1 123 10 126 17 5
15 22 -2 22 -8 0 -34 15 -58 33 -51 39 -147 102 -198 130 -90 50 -146 77 -157
77 -6 0 -13 4 -15 9 -4 10 -195 76 -298 102 -41 11 -103 22 -137 26 -35 3 -63
10 -63 14 0 5 -58 9 -130 9 -80 0 -130 -4 -130 -10z"/>
<path d="M8899 9239 c13 -5 67 -9 120 -8 125 2 343 -11 356 -21 6 -5 31 -11
57 -13 57 -7 76 -16 57 -28 -8 -4 -14 -14 -14 -21 0 -9 -14 -12 -45 -11 l-45
2 35 -14 c19 -7 45 -14 58 -14 12 -1 22 -6 22 -11 0 -10 -41 -7 -60 5 -5 3 -7
0 -4 -9 3 -8 0 -16 -8 -19 -7 -2 -5 -3 5 -2 9 2 17 -1 17 -5 0 -5 12 -11 28
-13 15 -3 -10 -4 -54 -4 -62 2 -78 -1 -65 -9 9 -6 38 -14 66 -18 27 -3 54 -11
59 -16 6 -6 24 -10 40 -10 17 0 40 -7 50 -15 11 -8 29 -15 41 -15 12 0 25 -4
31 -8 5 -4 36 -17 69 -27 33 -11 82 -32 108 -47 26 -15 50 -28 52 -28 3 0 34
-18 70 -40 36 -22 68 -40 71 -40 8 0 169 -122 172 -131 2 -5 7 -9 12 -9 5 0
25 -16 46 -35 20 -19 41 -35 45 -35 5 0 9 57 9 128 0 133 3 144 51 166 14 6
-20 0 -51 -10 -8 -2 -31 9 -50 26 -19 17 -62 47 -95 67 -33 20 -62 39 -65 42
-3 4 -23 15 -45 26 -22 11 -42 22 -45 25 -11 11 -137 70 -163 76 -15 3 -30 10
-33 15 -3 5 -16 9 -29 9 -13 0 -26 4 -30 9 -3 5 -20 13 -37 17 -18 3 -39 10
-48 15 -24 13 -140 37 -212 44 -38 4 -68 11 -68 16 0 5 -113 9 -252 8 -171 0
-245 -3 -229 -10z m664 -76 c-7 -2 -21 -2 -30 0 -10 3 -4 5 12 5 17 0 24 -2
18 -5z"/>
<path d="M11215 9239 c4 -6 49 -10 118 -8 120 2 322 -9 347 -18 8 -4 18 -7 22
-7 3 -1 9 -4 13 -8 4 -4 20 -5 35 -1 15 3 43 -2 61 -10 19 -9 45 -18 59 -21
14 -3 0 -3 -32 0 -31 2 -63 7 -72 10 -34 13 -14 -12 22 -27 l37 -16 -34 1
c-38 1 -55 -21 -19 -26 25 -3 32 -32 8 -34 -43 -3 -45 -5 -20 -24 14 -11 31
-20 38 -20 6 0 12 -7 12 -15 0 -10 10 -15 33 -15 18 0 42 -7 53 -15 10 -8 29
-15 41 -15 12 0 24 -4 27 -9 3 -4 20 -11 37 -15 28 -5 181 -73 219 -97 8 -5
23 -12 33 -15 9 -4 17 -10 17 -15 0 -5 5 -9 11 -9 11 0 109 -65 174 -114 83
-65 189 -166 250 -241 22 -26 52 -62 68 -79 15 -17 30 -39 33 -48 3 -10 10
-18 15 -18 5 0 9 -4 9 -10 0 -5 20 -40 43 -77 41 -64 127 -235 127 -253 0 -5
6 -21 14 -37 13 -25 23 -57 56 -178 37 -135 66 -403 55 -515 -17 -182 -25
-250 -36 -300 -16 -74 -57 -218 -74 -255 -7 -16 -30 -70 -51 -120 -46 -110
-162 -296 -192 -310 -12 -5 -22 -19 -22 -30 0 -10 -10 -29 -23 -40 -13 -11
-34 -36 -47 -55 -14 -19 -36 -44 -50 -54 -14 -11 -43 -39 -65 -63 -23 -24 -45
-43 -49 -43 -5 0 -19 -11 -32 -25 -13 -14 -25 -25 -28 -25 -3 0 -33 -19 -68
-42 -109 -74 -210 -128 -240 -128 -10 0 -18 -4 -18 -8 0 -9 -98 -52 -118 -52
-7 0 -20 -4 -30 -9 -59 -30 -154 -56 -243 -66 -30 -4 -67 -9 -84 -12 -60 -12
-311 -14 -380 -3 -190 30 -360 75 -427 111 -10 5 -24 9 -32 9 -8 0 -21 6 -28
13 -8 6 -58 34 -111 61 -53 27 -97 53 -97 58 0 4 -4 8 -10 8 -5 0 -36 19 -68
43 -71 52 -87 65 -175 146 l-26 24 -54 -54 c-60 -61 -104 -99 -114 -99 -3 0
-25 -16 -49 -35 -24 -20 -58 -42 -76 -51 -18 -8 -55 -28 -83 -44 -27 -17 -57
-33 -65 -36 -8 -3 -38 -16 -65 -29 -28 -13 -64 -26 -80 -30 -17 -4 -39 -10
-50 -15 -99 -39 -123 -45 -290 -72 -309 -49 -703 15 -974 160 -47 25 -88 48
-91 51 -3 3 -17 12 -32 20 -16 8 -28 18 -28 23 0 4 -5 8 -11 8 -16 0 -125 81
-194 144 -64 59 -75 60 -113 11 -11 -14 -25 -25 -31 -25 -6 0 -11 -7 -11 -15
0 -8 -5 -15 -11 -15 -7 0 -22 -11 -34 -24 -12 -13 -32 -27 -43 -31 -12 -3 -22
-11 -22 -16 0 -5 -4 -9 -10 -9 -5 0 -21 -10 -36 -22 -34 -31 -195 -117 -216
-118 -10 0 -18 -4 -18 -10 0 -5 -5 -10 -11 -10 -6 0 -25 -7 -42 -15 -46 -20
-205 -72 -252 -81 -22 -4 -47 -9 -55 -11 -93 -27 -401 -41 -504 -24 -181 31
-295 58 -363 87 -17 8 -38 14 -46 14 -9 0 -19 5 -22 10 -3 6 -15 10 -25 10
-10 0 -25 6 -32 13 -7 6 -31 20 -53 31 -22 10 -47 22 -55 27 -8 5 -35 20 -60
33 -57 31 -166 111 -251 187 l-66 58 -50 -47 c-27 -26 -60 -54 -73 -62 -12 -8
-28 -20 -34 -25 -62 -56 -135 -102 -266 -166 -36 -18 -66 -36 -68 -41 -2 -4
-11 -8 -20 -8 -18 0 -84 -22 -176 -59 -35 -14 -146 -39 -241 -54 -90 -14 -379
-14 -470 0 -104 16 -238 49 -300 73 -11 4 -40 15 -65 25 -25 9 -52 21 -60 26
-8 5 -22 12 -30 15 -29 12 -135 66 -140 73 -3 3 -21 15 -40 26 -41 22 -153
106 -158 117 -2 5 -8 8 -13 8 -9 0 -185 173 -229 225 -14 17 -44 55 -67 86
-23 31 -47 62 -55 70 -13 15 -33 50 -74 129 -12 25 -32 55 -43 67 -12 12 -22
31 -24 41 -1 10 -13 32 -26 48 -14 16 -21 21 -18 11 4 -11 10 -31 13 -45 4
-15 10 -31 14 -37 8 -12 6 -62 -2 -71 -4 -3 -11 4 -18 15 -14 28 -40 27 -40
-1 0 -38 -14 -52 -39 -39 -25 14 -30 75 -6 85 10 3 14 18 13 43 l-1 38 -4 -34
c-3 -26 -7 -31 -14 -20 -7 11 -9 9 -9 -8 0 -14 -6 -23 -15 -23 -8 0 -15 8 -15
19 0 10 -7 24 -15 31 -20 17 -19 30 3 30 12 0 10 4 -8 13 -16 8 -26 23 -28 40
-2 15 -8 27 -13 27 -5 0 -8 3 -7 8 3 16 -15 88 -28 109 -8 12 -14 38 -14 57 0
19 -4 38 -10 41 -5 3 -10 29 -10 56 0 28 -5 60 -11 71 -6 11 -15 80 -19 152
l-8 131 3 -140 c2 -77 6 -158 9 -180 10 -68 28 -149 37 -167 5 -10 9 -26 9
-36 0 -10 11 -51 26 -92 14 -41 28 -84 31 -95 3 -11 11 -34 19 -52 8 -17 14
-34 14 -37 0 -14 66 -146 102 -202 21 -34 38 -66 38 -73 0 -6 5 -11 10 -11 6
0 10 -7 10 -15 0 -8 3 -15 8 -15 4 0 19 -21 34 -48 41 -73 228 -275 357 -386
110 -94 345 -234 439 -261 12 -3 22 -11 22 -16 0 -5 9 -9 20 -9 17 0 55 -14
110 -39 8 -4 60 -18 115 -30 55 -13 116 -27 135 -31 19 -5 90 -14 158 -21 206
-20 475 6 672 66 30 9 66 19 80 22 14 3 34 12 45 19 11 8 28 14 38 14 10 0 25
7 33 15 9 8 26 15 40 15 13 0 24 3 24 8 0 4 21 17 48 30 26 13 70 36 97 53 28
16 57 33 65 36 8 4 19 12 23 20 4 7 12 13 18 13 5 0 37 20 71 45 34 25 66 45
71 45 6 0 28 -15 51 -33 114 -93 339 -217 476 -262 30 -10 57 -21 60 -25 3 -4
55 -17 115 -29 61 -13 119 -27 130 -31 20 -8 73 -14 253 -27 125 -8 328 12
482 48 69 16 136 34 150 39 97 34 196 75 198 82 2 4 10 8 17 8 32 0 212 106
317 186 58 45 88 55 88 29 0 -8 9 -15 19 -15 11 0 21 -4 23 -9 10 -26 309
-199 371 -215 15 -3 27 -11 27 -16 0 -6 14 -10 30 -10 17 0 30 -4 30 -9 0 -5
14 -13 32 -16 18 -4 39 -11 48 -15 15 -8 105 -32 195 -51 166 -36 386 -46 560
-25 122 14 325 55 370 75 11 5 38 16 60 24 22 9 55 21 74 29 33 12 179 85 231
115 77 44 192 124 203 140 11 18 46 16 53 -2 4 -8 11 -15 17 -15 6 0 17 -7 26
-16 30 -29 186 -124 281 -171 52 -25 97 -49 100 -53 3 -4 19 -10 35 -12 17 -3
64 -18 105 -33 145 -52 398 -95 560 -95 73 1 315 24 355 34 11 3 61 15 110 26
50 12 98 25 107 31 10 5 26 9 35 9 10 0 27 7 37 15 11 8 28 15 37 15 16 0 78
28 89 41 3 3 25 13 50 22 25 9 65 30 90 47 25 16 50 30 55 30 6 0 22 10 36 23
14 12 36 28 49 36 14 8 56 39 94 70 37 31 81 65 97 76 16 11 29 26 29 33 0 6
5 12 10 12 15 0 179 177 189 203 2 6 15 23 28 37 13 14 26 33 29 43 3 9 10 17
15 17 5 0 9 6 9 13 0 7 9 23 20 35 12 12 17 22 13 22 -4 0 -1 6 8 13 8 7 48
80 88 162 84 174 83 171 106 250 10 33 21 70 26 83 12 30 44 196 59 302 13 97
8 443 -8 555 -15 102 -42 219 -53 230 -5 5 -9 18 -9 30 0 61 -182 461 -230
505 -3 3 -23 32 -45 65 -62 97 -206 262 -280 323 -22 18 -53 44 -69 59 -16 14
-44 34 -62 45 -19 11 -34 24 -34 29 0 5 -6 9 -14 9 -8 0 -16 3 -18 8 -6 13
-98 72 -113 72 -8 0 -15 4 -15 8 0 13 -204 107 -335 155 -77 27 -254 69 -282
67 -38 -4 -64 0 -58 10 4 7 -78 10 -240 10 -171 0 -244 -3 -240 -11z m1660
-3145 c-9 -9 -19 -13 -23 -10 -3 4 0 11 8 16 24 15 33 11 15 -6z"/>
<path d="M4140 9221 c-42 -12 -7 -20 44 -10 27 5 52 11 54 14 8 7 -69 4 -98
-4z"/>
<path d="M4750 9217 c0 -11 12 -17 42 -19 54 -4 64 -28 11 -28 l-38 0 29 -23
c24 -20 26 -25 13 -30 -10 -4 -14 -13 -11 -22 4 -9 1 -15 -7 -16 -8 -1 6 -7
31 -15 l45 -14 -78 4 c-60 4 -76 2 -68 -8 5 -6 25 -13 43 -14 18 -2 45 -9 62
-17 16 -8 44 -15 62 -15 18 0 35 -4 39 -9 3 -5 20 -13 37 -17 18 -3 39 -10 48
-14 8 -4 42 -18 75 -30 67 -25 166 -73 207 -102 14 -10 31 -18 36 -18 5 0 37
-20 71 -45 34 -25 64 -45 67 -45 4 0 14 -8 23 -18 9 -9 32 -29 51 -44 19 -14
50 -40 68 -57 18 -17 36 -31 40 -31 4 0 6 53 4 119 -3 93 -1 122 11 132 12 11
2 22 -67 71 -45 31 -86 61 -92 66 -6 5 -20 13 -32 16 -12 4 -22 12 -22 17 0 5
-7 9 -15 9 -15 0 -65 27 -75 41 -3 4 -18 11 -33 14 -15 4 -27 11 -27 15 0 4
-21 15 -47 25 -27 10 -61 23 -78 30 -16 7 -52 20 -80 30 -27 9 -59 20 -70 25
-33 13 -162 41 -220 47 -46 5 -55 3 -55 -10z m130 -62 c-14 -17 -40 -20 -40
-6 0 8 18 16 44 20 5 0 3 -6 -4 -14z m-16 -55 c-6 -6 -21 -6 -39 -1 -30 9 -30
9 10 10 25 1 36 -2 29 -9z"/>
<path d="M6470 9220 c-11 -7 -8 -9 15 -9 17 1 41 5 55 9 22 7 20 8 -15 9 -22
0 -47 -4 -55 -9z"/>
<path d="M8795 9220 c-16 -7 -14 -9 15 -9 19 0 42 4 50 9 11 7 8 10 -15 9 -16
0 -39 -4 -50 -9z"/>
<path d="M11100 9220 c-21 -7 -17 -8 20 -8 25 0 54 3 65 8 27 11 -49 11 -85 0z"/>
<path d="M4060 9200 c-24 -8 -23 -8 8 -9 17 -1 32 4 32 9 0 11 -5 11 -40 0z"/>
<path d="M6370 9200 c-11 -7 -4 -10 25 -9 31 0 36 2 20 9 -26 11 -28 11 -45 0z"/>
<path d="M8700 9200 c-22 -7 -21 -8 13 -9 23 -1 36 3 32 9 -7 11 -10 11 -45 0z"/>
<path d="M11025 9200 c-30 -8 -30 -8 8 -9 20 0 37 4 37 9 0 11 -2 11 -45 0z"/>
<path d="M3975 9180 c-3 -5 -14 -10 -24 -10 -11 0 -38 -9 -62 -20 -57 -26 -29
-26 39 0 29 11 63 20 77 20 14 0 25 5 25 10 0 6 -11 10 -24 10 -14 0 -28 -4
-31 -10z"/>
<path d="M6295 9180 c-3 -5 -16 -10 -28 -10 -27 0 -54 -16 -44 -26 4 -4 23 0
42 9 20 9 44 17 55 17 10 0 22 5 25 10 3 6 -5 10 -19 10 -14 0 -28 -4 -31 -10z"/>
<path d="M8620 9180 c0 -5 11 -10 25 -10 14 0 25 5 25 10 0 6 -11 10 -25 10
-14 0 -25 -4 -25 -10z"/>
<path d="M10940 9180 c0 -5 11 -10 25 -10 14 0 25 5 25 10 0 6 -11 10 -25 10
-14 0 -25 -4 -25 -10z"/>
<path d="M8545 9156 c-11 -8 -25 -12 -31 -9 -7 2 -15 -1 -19 -8 -8 -12 -7 -12
62 4 13 3 31 10 40 16 16 9 15 10 -8 11 -14 0 -34 -6 -44 -14z"/>
<path d="M9390 9166 c0 -8 61 -12 66 -4 3 4 -11 8 -30 8 -20 0 -36 -2 -36 -4z"/>
<path d="M10866 9155 c-18 -13 -18 -14 3 -12 11 1 21 4 21 8 0 4 10 10 23 12
21 4 20 4 -3 5 -14 1 -33 -5 -44 -13z"/>
<path d="M11703 9163 c-22 -9 -14 -18 17 -19 19 -1 29 3 27 10 -4 12 -26 17
-44 9z"/>
<path d="M6173 9133 c9 -2 23 -2 30 0 6 3 -1 5 -18 5 -16 0 -22 -2 -12 -5z"/>
<path d="M10818 9133 c7 -3 16 -2 19 1 4 3 -2 6 -13 5 -11 0 -14 -3 -6 -6z"/>
<path d="M3808 9113 c6 -2 18 -2 25 0 6 3 1 5 -13 5 -14 0 -19 -2 -12 -5z"/>
<path d="M6103 9113 c-13 -2 -23 -9 -23 -14 0 -5 -7 -9 -14 -9 -24 0 -237
-115 -244 -132 -2 -4 -9 -8 -16 -8 -7 0 -23 -11 -36 -25 -30 -32 -17 -32 24 0
17 14 36 29 41 33 6 4 17 11 25 15 8 4 22 11 30 15 63 36 188 99 211 107 13 4
33 11 44 15 l20 8 -20 0 c-11 -1 -30 -3 -42 -5z"/>
<path d="M7073 9113 c9 -2 25 -2 35 0 9 3 1 5 -18 5 -19 0 -27 -2 -17 -5z"/>
<path d="M8448 9113 c6 -2 18 -2 25 0 6 3 1 5 -13 5 -14 0 -19 -2 -12 -5z"/>
<path d="M10738 9113 c-10 -2 -18 -8 -18 -13 0 -5 -6 -10 -12 -13 -7 -2 -2 -2
12 0 14 3 27 8 30 13 3 4 14 10 25 13 l20 5 -20 0 c-11 0 -28 -2 -37 -5z"/>
<path d="M3750 9099 c0 -3 -10 -9 -22 -12 -12 -4 -19 -9 -15 -13 7 -8 67 15
67 26 0 3 -7 7 -15 7 -8 0 -15 -4 -15 -8z"/>
<path d="M8400 9100 c0 -5 -9 -10 -20 -10 -11 0 -20 -5 -20 -11 0 -7 7 -8 18
-4 9 4 25 10 35 12 21 6 23 23 2 23 -8 0 -15 -4 -15 -10z"/>
<path d="M9375 9100 c-3 -5 -1 -10 4 -10 6 0 11 5 11 10 0 6 -2 10 -4 10 -3 0
-8 -4 -11 -10z"/>
<path d="M4760 9089 c0 -5 5 -7 10 -4 6 3 10 8 10 11 0 2 -4 4 -10 4 -5 0 -10
-5 -10 -11z"/>
<path d="M8300 9052 c-77 -40 -155 -87 -158 -94 -2 -4 -8 -8 -13 -8 -6 0 -15
-5 -22 -10 -7 -6 -27 -22 -46 -35 -19 -14 -30 -25 -25 -25 6 0 35 17 65 38 30
21 74 49 99 63 25 13 51 30 58 37 7 6 20 12 28 12 8 0 14 5 14 10 0 6 9 10 20
10 11 0 20 5 20 10 0 13 0 13 -40 -8z"/>
<path d="M10617 9050 c-14 -11 -32 -20 -40 -20 -9 0 -19 -5 -22 -11 -9 -13 4
-27 13 -14 4 6 28 20 55 33 26 13 47 25 47 28 0 11 -30 2 -53 -16z"/>
<path d="M3644 9045 c-19 -14 -18 -14 4 -15 12 0 22 4 22 9 0 5 8 12 18 14 14
4 13 5 -4 6 -11 0 -29 -6 -40 -14z"/>
<path d="M11695 9040 c3 -5 17 -10 31 -10 13 0 24 5 24 10 0 6 -14 10 -31 10
-17 0 -28 -4 -24 -10z"/>
<path d="M3590 9008 c0 -4 7 -8 15 -8 8 0 15 4 15 8 0 5 -7 9 -15 9 -8 0 -15
-4 -15 -9z"/>
<path d="M10520 9002 c-8 -3 -26 -16 -39 -29 -14 -12 -30 -23 -36 -23 -5 0
-28 -16 -50 -36 -36 -31 -37 -33 -10 -20 17 8 54 33 84 55 29 22 59 42 65 44
6 2 9 7 6 9 -3 3 -12 3 -20 0z"/>
<path d="M3530 8982 c-14 -9 -26 -20 -28 -24 -2 -5 -8 -8 -13 -8 -8 0 -81 -52
-99 -70 -3 -3 -29 -23 -57 -45 -29 -21 -53 -43 -53 -47 0 -4 -7 -8 -15 -8 -8
0 -15 -7 -15 -15 0 -8 -4 -15 -9 -15 -13 0 -111 -100 -111 -113 0 -6 2 -8 5
-6 2 2 39 38 82 79 102 98 190 173 214 182 10 4 19 11 19 16 0 5 16 17 35 28
19 10 35 22 35 26 0 5 6 8 13 8 6 0 21 7 31 15 28 21 -2 19 -34 -3z"/>
<path d="M4285 8975 c-49 -7 -99 -15 -110 -19 -11 -3 -51 -13 -90 -22 -38 -9
-83 -22 -100 -29 -16 -7 -55 -22 -85 -34 -55 -22 -231 -117 -240 -131 -3 -4
-17 -13 -31 -21 -56 -30 -129 -85 -129 -96 0 -7 -5 -13 -11 -13 -10 0 -159
-146 -215 -211 -45 -52 -114 -152 -114 -165 0 -8 -6 -17 -14 -20 -8 -3 -22
-22 -31 -42 -9 -20 -31 -64 -50 -97 -18 -33 -34 -70 -34 -82 -1 -12 -7 -26
-14 -30 -7 -4 -27 -57 -46 -118 -19 -60 -37 -121 -42 -135 -21 -65 -39 -253
-39 -413 0 -175 17 -316 55 -452 30 -110 137 -364 158 -373 4 -2 7 -9 7 -16 0
-7 14 -30 30 -51 17 -21 30 -43 30 -49 0 -6 10 -22 23 -36 12 -14 29 -34 37
-46 23 -32 92 -114 121 -143 65 -64 138 -129 179 -161 25 -19 47 -38 48 -42 2
-5 9 -8 16 -8 7 0 31 -12 53 -27 62 -44 74 -51 143 -83 36 -17 76 -37 90 -44
14 -8 40 -17 57 -21 18 -3 35 -11 38 -16 4 -5 17 -9 31 -9 13 0 32 -4 42 -9 9
-6 49 -14 87 -20 39 -5 80 -12 93 -15 12 -3 22 -1 22 5 0 5 -11 9 -24 9 -14 0
-28 5 -31 11 -4 5 -21 8 -38 5 l-32 -5 32 11 c30 10 31 12 15 24 -16 12 -15
13 6 14 13 0 20 4 17 10 -3 6 -19 8 -35 5 -16 -3 -32 -1 -35 5 -4 6 14 10 47
11 29 1 44 4 33 6 -11 3 -22 8 -25 12 -3 4 -16 12 -30 19 -22 11 -20 11 20 6
90 -12 473 -15 483 -5 8 8 -38 11 -154 11 -162 0 -332 22 -381 50 -10 6 -29
10 -42 10 -14 0 -27 4 -31 9 -3 5 -19 12 -35 16 -17 4 -49 17 -73 29 -23 13
-54 26 -69 30 -16 3 -28 11 -28 16 0 6 -5 10 -11 10 -9 0 -144 85 -159 100 -3
3 -24 18 -48 34 -110 75 -326 339 -392 481 -92 199 -101 223 -130 358 -43 201
-49 388 -21 577 13 82 55 248 76 295 7 17 18 41 23 55 33 78 55 126 61 130 3
3 15 21 25 40 32 59 109 173 141 209 91 103 238 240 267 250 6 2 22 13 35 25
40 35 115 76 268 146 50 23 138 50 162 50 11 0 23 4 29 10 17 17 210 40 334
40 119 0 317 -24 334 -41 6 -5 19 -9 29 -9 20 0 133 -39 197 -67 111 -49 166
-80 232 -130 42 -32 45 -38 36 -59 -6 -13 -14 -24 -17 -24 -4 0 -15 -17 -26
-37 -11 -21 -24 -41 -30 -45 -6 -5 -5 -8 3 -8 7 0 16 8 19 18 4 9 9 19 13 22
3 3 21 26 39 53 l32 47 124 0 c69 0 125 4 125 9 0 9 -39 46 -104 96 -22 17
-51 39 -65 51 -36 29 -151 104 -159 104 -4 0 -23 10 -42 23 -29 19 -103 53
-215 98 -18 7 -116 34 -215 59 -117 30 -367 37 -525 15z"/>
<path d="M6630 8979 c-91 -11 -111 -14 -130 -22 -8 -3 -33 -8 -55 -12 -22 -4
-44 -10 -50 -15 -5 -4 -23 -10 -40 -13 -16 -2 -55 -15 -85 -27 -30 -12 -64
-24 -75 -27 -11 -4 -22 -9 -25 -12 -3 -3 -36 -22 -75 -41 -38 -19 -72 -37 -75
-40 -10 -11 -69 -50 -76 -50 -7 0 -97 -73 -137 -112 -16 -16 -32 -28 -37 -28
-9 0 -70 -58 -70 -66 0 -3 15 -22 34 -42 35 -38 156 -199 156 -207 0 -3 18
-34 40 -70 22 -36 40 -67 40 -70 0 -2 18 -41 40 -86 22 -45 40 -89 40 -98 0
-9 6 -25 13 -36 20 -29 37 -96 71 -270 52 -269 39 -537 -42 -845 -11 -44 -58
-166 -77 -203 -8 -16 -15 -35 -15 -43 0 -8 -4 -14 -8 -14 -4 0 -13 -12 -19
-27 -16 -38 -56 -106 -67 -114 -5 -4 -5 -12 -2 -18 4 -6 3 -11 -1 -11 -9 0
-73 -85 -73 -97 0 -3 -11 -16 -25 -29 -14 -13 -25 -28 -25 -33 0 -6 -6 -14
-12 -18 -7 -5 -26 -23 -43 -41 l-30 -33 59 -55 c83 -78 195 -161 271 -201 127
-66 196 -97 265 -119 30 -9 65 -22 77 -27 12 -5 36 -7 53 -4 19 4 29 3 25 -3
-4 -6 13 -10 42 -10 27 0 53 -4 59 -9 5 -5 18 -5 29 -1 15 5 5 9 -37 15 -32 4
-59 13 -62 21 -3 8 1 11 12 8 10 -3 8 0 -4 7 -16 8 -20 17 -16 37 6 35 39 67
55 54 15 -11 57 -10 76 2 10 6 16 5 19 -2 5 -15 349 -17 372 -2 10 6 -45 10
-165 10 -99 0 -196 4 -215 10 -41 11 -80 19 -133 27 -21 3 -40 10 -43 14 -3 5
-18 9 -35 9 -16 0 -29 4 -29 9 0 5 -14 11 -31 15 -18 3 -68 23 -113 45 -45 21
-89 41 -98 44 -10 4 -18 10 -18 16 0 5 -8 11 -17 15 -18 5 -46 22 -70 41 -42
34 -42 34 -30 57 14 27 69 111 77 118 3 3 21 34 39 70 19 36 37 67 41 70 9 7
80 174 80 189 0 6 5 11 10 11 6 0 10 10 10 23 0 12 6 33 13 47 14 26 36 108
77 285 28 122 39 433 20 610 -15 145 -74 376 -126 500 -27 66 -127 270 -133
275 -4 3 -22 30 -39 61 -18 31 -39 62 -47 69 -8 7 -15 19 -15 26 0 8 -4 14
-10 14 -43 0 71 88 192 147 121 60 237 102 281 103 15 0 27 4 27 9 0 15 205
41 327 41 116 0 335 -27 341 -42 2 -4 14 -8 26 -8 60 0 287 -102 409 -183 66
-45 75 -56 56 -68 -8 -5 -10 -9 -5 -9 5 0 18 7 28 17 15 13 39 16 146 14 l127
-1 -50 46 c-27 25 -86 72 -130 105 -116 86 -118 87 -185 121 -25 13 -47 25
-50 29 -13 14 -161 75 -235 96 -81 23 -166 43 -225 53 -82 14 -355 20 -440 9z"/>
<path d="M8920 8974 c-107 -16 -248 -50 -305 -74 -16 -7 -39 -16 -50 -20 -52
-20 -235 -115 -235 -122 0 -4 -6 -8 -14 -8 -8 0 -16 -7 -20 -15 -3 -8 -14 -15
-25 -15 -11 0 -21 -3 -23 -7 -1 -5 -28 -27 -58 -49 -30 -23 -71 -55 -90 -73
-19 -17 -38 -31 -42 -31 -5 0 -8 -6 -8 -14 0 -8 -7 -17 -15 -20 -20 -7 -10
-28 39 -78 20 -20 36 -41 36 -47 0 -5 4 -11 9 -13 8 -3 103 -144 138 -203 122
-211 192 -446 224 -749 15 -142 2 -321 -38 -511 -14 -66 -28 -132 -30 -147 -3
-16 -10 -28 -15 -28 -5 0 -6 -5 -3 -10 4 -6 3 -16 -2 -23 -6 -7 -15 -28 -23
-47 -7 -19 -29 -69 -48 -110 -20 -41 -37 -82 -39 -90 -1 -8 -9 -20 -17 -26 -9
-6 -16 -18 -16 -27 0 -8 -3 -17 -7 -19 -9 -3 -73 -96 -73 -104 0 -8 -58 -80
-107 -133 -24 -25 -43 -49 -43 -52 0 -23 205 -184 325 -256 27 -16 143 -73
180 -88 17 -7 47 -20 68 -29 21 -9 47 -16 58 -16 11 0 28 -4 37 -9 9 -4 46
-11 82 -15 65 -6 65 -6 38 11 -16 10 -28 21 -28 25 0 5 12 9 28 9 16 1 20 3
10 6 -10 2 -18 8 -18 13 0 5 -10 11 -22 13 -19 3 -18 4 3 3 44 -3 50 17 10 36
l-36 16 42 1 c23 1 44 -3 48 -8 7 -12 423 -13 450 -1 13 5 -43 9 -149 9 -132
1 -192 6 -280 23 -61 13 -112 26 -114 30 -2 5 -12 8 -22 8 -20 0 -170 58 -185
71 -5 5 -17 9 -26 9 -9 0 -19 7 -23 15 -3 8 -13 15 -21 15 -20 0 -162 90 -169
107 -3 6 6 27 19 45 13 18 34 51 46 73 12 22 25 42 29 45 4 3 24 37 45 75 20
39 40 77 44 85 54 100 129 314 156 445 4 17 14 64 23 105 24 110 23 550 -1
670 -47 231 -109 423 -178 550 -4 8 -22 42 -40 75 -17 33 -38 67 -45 76 -8 8
-14 21 -14 27 0 7 -4 12 -10 12 -5 0 -10 6 -10 13 0 6 -16 32 -35 56 -19 24
-35 45 -35 47 0 5 46 48 66 62 63 42 116 72 169 96 33 15 74 33 90 41 41 19
130 45 152 45 11 0 23 4 29 10 16 16 221 40 343 40 147 0 332 -30 418 -66 17
-8 37 -14 44 -14 14 0 94 -36 184 -83 88 -45 175 -107 175 -123 0 -8 -18 -39
-40 -69 -42 -57 -46 -65 -31 -65 5 0 23 22 40 49 61 95 53 91 190 91 66 0 121
4 121 9 0 5 -24 29 -52 53 -29 23 -54 46 -56 51 -2 4 -10 7 -18 7 -8 0 -14 4
-14 8 0 5 -25 26 -55 48 -30 21 -55 42 -55 47 0 4 -9 7 -19 7 -11 0 -22 4 -25
9 -7 11 -237 125 -286 141 -90 31 -213 60 -315 75 -111 17 -322 16 -435 -1z"/>
<path d="M11250 8975 c-52 -8 -122 -21 -155 -30 -33 -9 -79 -20 -102 -25 -24
-5 -61 -18 -85 -30 -23 -11 -47 -20 -52 -20 -6 0 -22 -6 -36 -13 -14 -8 -54
-29 -90 -48 -36 -18 -67 -36 -70 -39 -10 -10 -69 -50 -75 -50 -5 0 -46 -33
-77 -62 -10 -10 -20 -18 -23 -18 -5 0 -27 -18 -80 -65 -12 -11 -32 -27 -44
-35 -28 -19 -27 -30 12 -70 42 -45 122 -150 130 -172 3 -10 11 -18 17 -18 5 0
10 -6 10 -14 0 -8 3 -16 8 -18 4 -1 15 -19 26 -38 55 -102 103 -199 115 -235
7 -22 19 -53 26 -70 20 -50 45 -140 45 -166 0 -14 4 -29 9 -34 32 -34 49 -536
23 -695 -13 -87 -37 -182 -51 -208 -6 -11 -11 -30 -11 -41 0 -12 -4 -29 -9
-39 -18 -33 -81 -198 -81 -210 0 -7 -4 -12 -9 -12 -5 0 -11 -8 -15 -17 -3 -10
-19 -40 -36 -68 -17 -27 -34 -57 -37 -65 -4 -8 -12 -19 -18 -25 -7 -5 -34 -39
-60 -75 -27 -36 -64 -81 -82 -100 -18 -19 -33 -37 -33 -40 0 -3 10 -15 23 -28
109 -108 270 -220 407 -283 155 -71 204 -86 349 -109 72 -11 91 -6 43 11 -18
6 -30 15 -27 19 3 4 -2 10 -10 14 -22 8 -19 47 5 53 16 4 18 8 9 19 -18 22 -3
28 40 16 47 -15 437 -16 446 -3 3 6 -69 11 -182 14 -104 2 -197 6 -208 9 -11
3 -49 12 -85 18 -36 7 -69 17 -75 21 -5 5 -21 9 -35 9 -14 0 -30 4 -35 8 -6 5
-26 15 -45 22 -56 21 -205 94 -208 102 -2 4 -8 8 -13 8 -21 0 -119 81 -112 93
13 22 73 112 82 123 5 6 12 20 15 32 4 12 12 22 17 22 5 0 9 8 9 18 0 10 4 22
9 28 17 17 78 138 104 204 110 280 146 464 146 750 0 218 -15 359 -56 510 -42
157 -125 369 -176 447 -15 24 -27 49 -27 57 0 8 -7 16 -15 20 -8 3 -15 12 -15
19 0 8 -18 39 -40 71 -22 31 -40 61 -40 66 0 4 -5 10 -12 12 -19 7 -1 25 70
71 136 88 334 177 393 177 14 0 29 4 35 9 5 4 56 16 114 26 161 26 517 10 554
-26 6 -5 24 -9 41 -9 18 0 34 -3 38 -6 3 -4 34 -16 69 -28 119 -42 368 -182
368 -207 0 -5 6 -9 14 -9 18 0 227 -206 251 -247 11 -18 23 -33 27 -33 4 0 8
-4 8 -10 0 -5 9 -20 20 -33 21 -24 42 -58 81 -134 13 -24 26 -43 31 -43 4 0 8
-11 8 -24 0 -14 4 -27 9 -30 4 -3 18 -34 30 -68 12 -35 25 -70 30 -78 4 -8 16
-47 27 -87 24 -95 40 -90 20 7 -11 50 -35 132 -46 151 -5 9 -12 34 -15 55 -4
22 -13 44 -21 50 -12 10 -12 17 0 50 8 21 15 35 16 29 1 -5 7 5 14 24 10 27
14 31 19 18 3 -9 2 -17 -4 -17 -6 0 -7 -5 -3 -11 4 -8 9 -7 15 2 6 11 11 11
21 1 19 -19 28 -14 26 13 -1 13 -4 22 -7 20 -2 -3 -19 25 -37 62 -19 36 -40
73 -49 83 -8 9 -15 21 -15 27 0 5 -13 23 -30 39 -16 16 -30 33 -30 38 0 11
-80 109 -92 114 -5 2 -8 10 -8 17 0 7 -4 15 -9 17 -5 2 -34 26 -63 54 -29 28
-91 78 -138 112 -47 34 -90 67 -97 72 -7 6 -17 10 -23 10 -5 0 -10 3 -10 8 0
4 -24 18 -52 32 -29 13 -55 27 -58 30 -18 21 -261 110 -340 125 -19 3 -44 10
-55 15 -29 12 -237 30 -341 29 -49 -1 -132 -7 -184 -14z m1557 -827 c-3 -8 -6
-5 -6 6 -1 11 2 17 5 13 3 -3 4 -12 1 -19z m53 -53 c0 -5 -5 -3 -10 5 -5 8
-10 20 -10 25 0 6 5 3 10 -5 5 -8 10 -19 10 -25z m-91 -36 c1 13 4 22 7 18 9
-8 -5 -77 -15 -77 -10 0 -19 51 -12 71 3 9 7 5 12 -11 l7 -25 1 24z"/>
<path d="M5728 8883 c7 -3 16 -2 19 1 4 3 -2 6 -13 5 -11 0 -14 -3 -6 -6z"/>
<path d="M5680 8860 c-13 -9 -13 -10 0 -10 8 0 22 5 30 10 13 9 13 10 0 10 -8
0 -22 -5 -30 -10z"/>
<path d="M3065 8568 c-22 -28 -46 -57 -53 -65 -8 -8 -12 -16 -9 -19 2 -3 27
21 54 53 56 66 68 83 56 83 -5 0 -27 -23 -48 -52z"/>
<path d="M5638 8455 c-6 -14 -15 -25 -20 -25 -4 0 -8 -5 -8 -10 0 -6 -11 -21
-25 -34 -14 -13 -25 -28 -25 -34 0 -5 -7 -12 -15 -16 -8 -3 -15 -12 -15 -21 0
-8 -4 -15 -10 -15 -5 0 -12 -11 -16 -25 -3 -14 -10 -25 -14 -25 -11 0 -68 -94
-76 -125 -3 -14 -9 -25 -13 -25 -9 0 -41 -66 -41 -85 0 -7 -4 -15 -8 -17 -12
-5 -52 -108 -52 -134 0 -12 -4 -26 -10 -29 -5 -3 -10 -16 -10 -29 0 -12 -5
-27 -12 -34 -12 -12 -18 -41 -43 -207 -30 -194 -24 -440 16 -620 18 -82 101
-335 111 -335 4 0 8 -7 8 -16 0 -10 18 -48 40 -86 22 -39 40 -72 40 -75 0 -3
14 -22 30 -43 17 -21 30 -41 30 -45 0 -8 52 -77 83 -110 11 -11 26 -30 34 -42
9 -13 19 -23 24 -23 5 0 9 52 9 115 0 114 0 115 35 169 40 63 48 90 10 33 -14
-20 -31 -37 -38 -37 -20 0 -157 246 -157 282 0 10 -4 18 -8 18 -8 0 -41 98
-62 180 -5 19 -17 64 -26 100 -14 51 -18 109 -18 270 -1 201 8 282 44 390 5
14 12 41 15 60 3 19 10 44 15 55 18 41 38 91 54 133 9 23 26 59 38 80 13 20
31 53 41 73 22 44 65 91 76 84 11 -6 81 -124 81 -136 0 -5 5 -9 10 -9 6 0 10
-6 10 -12 0 -7 7 -26 16 -43 21 -40 80 -187 84 -210 1 -3 6 -19 11 -37 6 -18
12 -42 14 -53 17 -95 25 -141 25 -147 0 -5 5 -8 11 -8 12 0 9 29 -12 135 -5
28 -11 64 -13 81 -2 17 -9 40 -15 50 -5 11 -20 48 -32 84 -12 36 -26 70 -31
77 -5 7 -7 22 -3 34 5 14 4 19 -4 15 -7 -5 -11 1 -11 15 0 12 -7 30 -15 39
-17 19 -28 60 -17 60 4 0 18 -13 32 -30 14 -16 28 -30 32 -30 12 0 10 38 -2
45 -6 4 -7 11 -4 17 5 7 12 5 20 -7 8 -10 17 -16 20 -12 11 10 56 -44 50 -59
-3 -7 -1 -16 4 -19 6 -4 10 -15 10 -25 0 -10 4 -21 9 -25 30 -18 -42 186 -72
206 -5 3 -8 10 -8 15 1 5 -6 17 -14 27 -8 9 -15 20 -15 24 0 9 -91 145 -106
158 -6 6 -23 27 -39 48 -32 44 -41 46 -57 12z"/>
<path d="M7580 8398 c-29 -46 -55 -92 -57 -103 -2 -13 -1 -15 3 -5 4 8 10 17
14 20 3 3 17 25 31 49 13 25 34 56 47 69 19 21 30 52 19 52 -2 0 -28 -37 -57
-82z"/>
<path d="M2970 8441 c-12 -17 -16 -31 -10 -31 6 0 14 8 17 18 4 9 11 20 17 24
6 4 8 10 4 13 -3 3 -16 -8 -28 -24z"/>
<path d="M7938 8429 c-18 -23 -39 -47 -45 -54 -7 -8 -13 -18 -13 -24 0 -6 -3
-11 -7 -11 -5 0 -21 -20 -38 -45 -16 -24 -33 -45 -37 -45 -3 0 -9 -13 -13 -30
-4 -16 -10 -30 -15 -30 -5 0 -12 -10 -16 -22 -4 -13 -10 -25 -14 -28 -6 -5
-62 -117 -94 -192 -9 -20 -16 -42 -16 -50 0 -8 -3 -18 -7 -22 -32 -32 -81
-270 -93 -456 -14 -216 -2 -338 50 -552 23 -92 89 -272 101 -276 5 -2 9 -8 9
-14 0 -12 41 -100 51 -108 3 -3 9 -12 12 -20 27 -57 133 -203 187 -257 l25
-25 3 123 c2 96 6 125 17 132 19 10 19 27 0 27 -46 0 -228 385 -236 500 -2 19
-7 40 -11 46 -5 7 -16 59 -24 115 -22 149 -12 407 21 524 7 28 21 77 30 110
22 80 74 211 102 257 13 21 23 42 23 46 0 5 13 27 28 48 16 21 31 47 35 57 12
32 54 19 48 -15 0 -5 5 -8 12 -8 12 0 39 -45 98 -162 36 -70 109 -288 109
-322 0 -14 5 -26 10 -26 6 0 11 -24 12 -52 l1 -53 4 45 c3 25 -2 72 -11 105
-8 33 -22 92 -31 130 -20 82 -24 95 -53 155 -12 25 -22 51 -22 58 0 6 -4 12
-10 12 -5 0 -10 10 -10 23 1 21 1 22 15 3 15 -20 15 -20 15 0 0 16 2 17 10 4
6 -9 10 -10 10 -3 0 6 20 15 45 19 25 3 45 11 45 16 0 5 -4 7 -9 3 -5 -3 -12
-1 -16 5 -3 5 1 10 10 10 9 0 13 5 10 10 -4 6 -16 8 -28 5 -16 -5 -18 -4 -8 3
12 8 10 17 -8 54 -13 23 -39 67 -59 97 -21 29 -41 61 -47 70 -5 9 -22 30 -37
46 -16 17 -28 33 -28 37 0 11 -38 48 -49 48 -5 0 -24 -19 -43 -41z"/>
<path d="M10263 8434 c-15 -20 -43 -54 -60 -76 -47 -57 -136 -195 -161 -250
-12 -25 -26 -49 -32 -53 -5 -3 -10 -17 -10 -31 0 -13 -4 -24 -9 -24 -5 0 -11
-8 -14 -17 -3 -10 -21 -63 -40 -118 -19 -55 -40 -127 -47 -160 -7 -33 -16 -71
-20 -85 -38 -118 -32 -462 13 -690 17 -83 95 -313 108 -318 5 -2 9 -9 9 -17 0
-20 127 -244 150 -265 3 -3 17 -21 30 -40 29 -42 58 -76 85 -102 20 -19 20
-19 23 98 2 94 6 122 21 143 28 40 43 71 34 71 -5 0 -13 -10 -18 -22 -16 -36
-38 -32 -60 9 -11 21 -22 40 -25 43 -20 20 -113 213 -125 260 -3 14 -10 34
-15 45 -9 21 -40 143 -61 234 -7 33 -12 131 -12 245 1 209 12 286 65 456 28
91 134 321 150 328 4 2 8 9 8 15 0 7 11 26 25 42 l25 30 21 -25 c12 -14 32
-45 45 -70 13 -25 28 -52 34 -60 9 -14 35 -72 81 -178 11 -24 19 -57 19 -73 0
-16 4 -29 9 -29 10 0 37 -109 50 -204 6 -38 14 -73 18 -77 12 -12 -1 108 -21
196 -8 39 -18 84 -21 100 -4 17 -10 39 -15 50 -5 11 -14 39 -20 63 -6 23 -15
42 -20 42 -6 0 -10 10 -10 23 0 13 -7 32 -15 43 -8 10 -14 37 -14 59 0 22 3
33 6 25 4 -8 12 -20 19 -27 9 -10 13 -5 19 25 6 31 9 34 15 17 l9 -20 2 20 c1
11 2 26 2 33 -1 6 3 12 8 12 5 0 9 -9 9 -19 0 -33 54 -121 66 -108 5 4 -15 53
-55 135 -8 17 -19 32 -24 32 -4 0 -6 4 -2 9 3 5 1 12 -5 16 -5 3 -10 15 -10
25 0 10 -6 23 -13 27 -7 4 -29 31 -47 58 -46 66 -130 165 -141 165 -4 0 -21
-16 -36 -36z"/>
<path d="M2931 8382 c-17 -31 -13 -40 5 -14 9 13 14 26 11 29 -3 2 -10 -4 -16
-15z"/>
<path d="M5220 8330 c-12 -16 -18 -30 -13 -30 5 0 17 14 26 30 10 17 16 30 13
30 -2 0 -14 -13 -26 -30z"/>
<path d="M9852 8322 c-24 -48 -24 -58 -2 -25 12 18 20 37 18 43 -1 5 -9 -3
-16 -18z"/>
<path d="M2890 8319 c-18 -33 -6 -42 13 -9 10 16 14 30 8 30 -6 0 -15 -9 -21
-21z"/>
<path d="M5183 8263 c-7 -15 -11 -28 -9 -31 6 -6 28 38 24 48 -2 5 -9 -3 -15
-17z"/>
<path d="M2846 8232 c-10 -20 -26 -53 -35 -72 -9 -19 -19 -36 -23 -38 -5 -2
-8 -11 -8 -20 0 -9 -7 -30 -15 -45 -8 -15 -17 -43 -21 -63 -3 -19 -10 -37 -15
-40 -5 -3 -9 -13 -9 -22 1 -21 29 25 30 48 0 8 7 28 15 44 8 15 15 32 15 37 0
5 21 52 46 104 25 53 44 98 42 100 -2 2 -12 -12 -22 -33z"/>
<path d="M9816 8253 c-8 -8 -66 -131 -66 -139 0 -3 7 1 15 10 8 8 15 19 15 24
0 6 8 25 17 44 35 71 38 80 19 61z"/>
<path d="M7485 8226 c-15 -17 -36 -66 -27 -66 7 1 45 71 40 75 -2 2 -8 -2 -13
-9z"/>
<path d="M5152 8208 c-6 -7 -13 -27 -17 -43 -6 -27 -5 -26 14 9 21 40 23 57 3
34z"/>
<path d="M7441 8133 c0 -13 -5 -23 -11 -23 -5 0 -10 -6 -10 -12 0 -7 -7 -26
-15 -41 -8 -15 -17 -45 -20 -65 -4 -26 2 -16 19 32 14 38 31 75 37 82 6 7 9
21 6 31 -4 14 -5 13 -6 -4z"/>
<path d="M5102 8100 c-20 -45 -32 -91 -21 -85 5 4 9 15 9 26 0 10 4 19 9 19 8
0 25 60 18 66 -1 2 -8 -10 -15 -26z"/>
<path d="M9731 8070 c-7 -17 -10 -34 -7 -37 3 -4 6 1 6 10 0 8 5 17 11 19 6 2
10 12 8 21 -3 13 -7 10 -18 -13z"/>
<path d="M8240 8039 c0 -5 5 -7 10 -4 6 3 10 -1 10 -9 0 -8 -4 -18 -10 -21 -5
-3 -10 -12 -9 -18 0 -9 2 -9 6 1 7 18 31 15 36 -5 2 -10 2 -2 0 17 -3 19 -7
38 -9 42 -8 12 -34 9 -34 -3z"/>
<path d="M12888 8042 c-10 -2 -18 -8 -18 -14 0 -5 6 -8 14 -5 8 3 17 1 19 -6
2 -7 7 -10 9 -7 11 11 -8 35 -24 32z"/>
<path d="M10517 8020 c3 -11 12 -20 19 -20 20 0 17 18 -5 29 -16 9 -18 8 -14
-9z"/>
<path d="M5851 8013 c0 -5 4 -17 9 -28 8 -18 9 -17 9 8 1 15 -3 27 -9 27 -5 0
-10 -3 -9 -7z"/>
<path d="M9705 8007 c-4 -10 -5 -21 -1 -24 10 -10 18 4 13 24 -4 17 -4 17 -12
0z"/>
<path d="M5062 7988 c-7 -7 -12 -20 -12 -29 0 -10 -4 -21 -10 -24 -5 -3 -10
-16 -10 -27 0 -12 3 -18 8 -14 6 7 42 106 38 106 -1 0 -7 -5 -14 -12z"/>
<path d="M5882 7975 c0 -16 2 -22 5 -12 2 9 2 23 0 30 -3 6 -5 -1 -5 -18z"/>
<path d="M8180 7990 c0 -5 5 -10 10 -10 6 0 10 5 10 10 0 6 -4 10 -10 10 -5 0
-10 -4 -10 -10z"/>
<path d="M12920 7972 c0 -18 5 -32 10 -32 6 0 8 11 4 28 -10 39 -14 40 -14 4z"/>
<path d="M9677 7924 c-23 -65 -21 -79 4 -29 11 22 18 49 17 59 -2 13 -9 2 -21
-30z"/>
<path d="M7362 7935 c0 -16 2 -22 5 -12 2 9 2 23 0 30 -3 6 -5 -1 -5 -18z"/>
<path d="M2712 7890 c0 -14 2 -19 5 -12 2 6 2 18 0 25 -3 6 -5 1 -5 -13z"/>
<path d="M5022 7855 c0 -16 2 -22 5 -12 2 9 2 23 0 30 -3 6 -5 -1 -5 -18z"/>
<path d="M7341 7861 c-6 -11 -13 -42 -16 -68 l-5 -48 10 40 c6 22 15 50 22 62
6 13 9 26 5 29 -3 3 -10 -3 -16 -15z"/>
<path d="M2692 7830 c0 -19 2 -27 5 -17 2 9 2 25 0 35 -3 9 -5 1 -5 -18z"/>
<path d="M9653 7833 c-7 -3 -13 -17 -13 -31 l1 -27 15 28 c17 31 16 37 -3 30z"/>
<path d="M5000 7785 c0 -19 2 -35 4 -35 2 0 6 16 8 35 2 19 0 35 -4 35 -4 0
-8 -16 -8 -35z"/>
<path d="M2678 7784 c-5 -4 -8 -21 -7 -38 0 -30 0 -30 10 -7 11 27 8 57 -3 45z"/>
<path d="M9633 7725 c0 -22 2 -30 4 -17 2 12 2 30 0 40 -3 9 -5 -1 -4 -23z"/>
<path d="M7303 7700 c0 -25 2 -35 4 -22 2 12 2 32 0 45 -2 12 -4 2 -4 -23z"/>
<path d="M4976 7694 c-3 -9 -5 -30 -5 -47 1 -21 3 -25 6 -12 3 11 9 24 14 30
12 12 12 45 0 45 -5 0 -12 -7 -15 -16z"/>
<path d="M2653 7668 c-6 -23 -7 -40 -2 -44 13 -7 21 19 17 53 -3 27 -3 27 -15
-9z"/>
<path d="M9613 7620 c0 -30 2 -43 4 -27 2 15 2 39 0 55 -2 15 -4 2 -4 -28z"/>
<path d="M12876 7622 c-2 -4 -1 -23 4 -42 l8 -35 1 43 c1 41 -3 50 -13 34z"/>
<path d="M7281 7568 c1 -42 3 -48 9 -28 12 36 12 80 0 80 -6 0 -10 -24 -9 -52z"/>
<path d="M4955 7554 c-4 -22 -2 -41 4 -47 8 -8 11 3 11 36 0 56 -5 60 -15 11z"/>
<path d="M2634 7455 c0 -49 1 -71 3 -48 2 23 2 64 0 90 -2 26 -3 8 -3 -42z"/>
<path d="M9592 7487 c-16 -44 -14 -286 2 -352 12 -45 13 -27 13 168 1 119 0
217 -1 217 -1 0 -7 -15 -14 -33z"/>
<path d="M8249 7338 c2 -120 6 -164 12 -143 17 60 12 306 -7 312 -5 2 -7 -75
-5 -169z"/>
<path d="M12891 7438 c1 -55 3 -66 9 -43 11 45 11 103 0 110 -6 4 -10 -20 -9
-67z"/>
<path d="M5935 7330 c2 -94 5 -174 9 -177 3 -4 6 73 6 170 0 98 -4 177 -8 177
-5 0 -8 -77 -7 -170z"/>
<path d="M7265 7368 c-3 -46 -2 -108 3 -138 9 -48 10 -38 11 83 0 75 -1 137
-3 137 -2 0 -7 -37 -11 -82z"/>
<path d="M4943 7310 c0 -36 2 -50 4 -32 2 17 2 47 0 65 -2 17 -4 3 -4 -33z"/>
<path d="M10583 7310 c0 -36 2 -50 4 -32 2 17 2 47 0 65 -2 17 -4 3 -4 -33z"/>
<path d="M12893 7185 c0 -38 2 -53 4 -32 2 20 2 52 0 70 -2 17 -4 1 -4 -38z"/>
<path d="M10566 7144 c-9 -25 -7 -64 4 -64 6 0 10 18 10 40 0 43 -4 50 -14 24z"/>
<path d="M4958 7129 c-6 -17 18 -200 31 -232 6 -16 11 -41 11 -57 0 -16 4 -31
9 -34 5 -4 12 -29 16 -56 4 -27 11 -52 16 -56 5 -3 9 -13 9 -22 1 -9 9 -35 20
-57 11 -22 19 -44 20 -49 1 -31 172 -348 206 -383 7 -7 18 -25 25 -41 l13 -29
143 -1 c79 -1 143 1 143 3 0 2 -6 10 -13 17 -43 44 -167 203 -179 228 -7 16
-16 30 -20 30 -4 0 -15 15 -24 33 -9 17 -23 36 -30 40 -8 4 -14 19 -14 33 0
13 -7 27 -15 30 -8 4 -15 15 -15 26 0 10 -4 16 -10 13 -5 -3 -10 -15 -10 -25
0 -13 -5 -17 -15 -14 -9 4 -15 0 -15 -10 0 -9 -7 -16 -15 -16 -8 0 -15 -4 -15
-10 0 -5 5 -10 10 -10 6 0 10 -10 9 -22 l0 -23 -9 22 c-6 15 -15 21 -25 17
-19 -8 -19 -13 1 -53 9 -18 14 -35 11 -37 -3 -3 -8 4 -12 15 -3 12 -10 21 -15
21 -4 0 -11 11 -14 24 -3 13 -17 34 -31 47 -13 13 -25 30 -25 38 0 11 4 9 15
-5 15 -19 15 -19 8 1 -4 11 -15 28 -24 39 -10 10 -21 32 -24 47 -4 16 -10 29
-14 29 -6 0 -17 36 -52 165 -6 22 -14 47 -17 55 -3 8 -4 19 -3 23 1 5 -3 6 -9
2 -6 -4 -10 15 -10 54 0 32 -4 61 -10 63 -5 2 -12 32 -16 68 -6 67 -9 80 -16
59z"/>
<path d="M7281 7068 c-1 -39 3 -68 9 -68 6 0 10 -19 10 -42 0 -47 39 -201 52
-206 4 -2 8 -17 8 -33 0 -16 4 -37 9 -47 16 -32 51 -127 51 -140 0 -6 5 -12
10 -12 6 0 10 -9 10 -20 0 -21 36 -97 51 -106 5 -3 9 -14 9 -25 0 -10 3 -19 8
-19 4 0 19 -21 32 -47 14 -27 28 -49 33 -51 4 -2 7 -10 7 -17 0 -7 3 -15 8
-17 13 -6 51 -66 58 -92 5 -22 10 -25 28 -19 11 4 77 6 145 4 l124 -3 -29 38
c-16 22 -41 50 -55 64 -14 14 -34 40 -45 58 -10 17 -22 32 -26 32 -4 0 -8 6
-8 14 0 8 -3 16 -7 18 -15 6 -85 115 -104 161 -6 15 -15 27 -20 27 -5 0 -9 9
-9 20 0 11 -4 20 -9 20 -15 0 -23 -18 -11 -25 5 -3 9 -18 9 -33 l-1 -27 -8 30
c-4 17 -8 22 -9 11 -1 -15 -6 -17 -33 -12 -18 4 -41 8 -51 9 -10 1 -16 6 -13
13 2 6 0 17 -5 25 -7 10 -9 3 -7 -21 2 -26 7 -34 19 -32 9 1 19 -4 22 -13 5
-11 0 -14 -21 -13 -31 3 -52 20 -52 42 0 9 -4 16 -10 16 -5 0 -10 6 -10 13 0
6 -6 24 -14 38 -7 14 -16 42 -20 63 -4 20 -11 34 -16 31 -4 -3 -11 13 -15 35
-4 22 -10 40 -15 40 -4 0 -10 15 -13 33 -3 17 -14 70 -26 117 -12 47 -25 110
-28 140 -9 89 -22 104 -22 28z"/>
<path d="M8243 7060 c0 -36 2 -50 4 -32 2 17 2 47 0 65 -2 17 -4 3 -4 -33z"/>
<path d="M5917 7073 c-4 -3 -7 -22 -6 -42 l1 -36 9 39 c9 39 8 52 -4 39z"/>
<path d="M12880 7057 c0 -13 -5 -28 -11 -34 -7 -7 -6 -12 5 -16 13 -5 16 1 16
33 0 22 -2 40 -5 40 -3 0 -5 -10 -5 -23z"/>
<path d="M9611 7013 c-1 -35 3 -63 8 -63 4 0 12 -33 16 -72 3 -40 10 -77 14
-83 4 -5 17 -44 30 -85 45 -147 170 -415 219 -468 6 -7 12 -17 12 -22 0 -5 6
-15 13 -22 39 -41 62 -108 36 -108 -13 0 -81 -51 -75 -57 2 -2 30 14 61 36
l58 41 124 0 c76 0 123 4 123 10 0 6 -11 23 -24 38 -81 90 -166 202 -166 217
0 7 -4 15 -8 17 -12 5 -52 77 -52 94 0 8 -6 14 -14 14 -8 0 -19 14 -25 30 -9
29 -31 42 -31 19 0 -6 -9 -8 -20 -4 -14 4 -20 2 -20 -9 0 -10 -6 -13 -15 -10
-10 4 -15 0 -15 -15 0 -18 -31 -61 -45 -61 -2 0 -7 17 -11 38 -9 48 -32 94
-44 87 -6 -4 -10 -1 -10 5 0 7 -13 45 -30 87 -16 41 -30 85 -30 99 0 13 -4 24
-10 24 -5 0 -10 16 -10 35 0 19 -4 35 -9 35 -6 0 -13 21 -17 48 -4 26 -12 74
-20 107 l-12 60 -1 -62z m329 -503 c0 -5 -7 -10 -16 -10 -8 0 -12 5 -9 10 3 6
10 10 16 10 5 0 9 -4 9 -10z m-90 -80 c0 -5 -2 -10 -4 -10 -3 0 -8 5 -11 10
-3 6 -1 10 4 10 6 0 11 -4 11 -10z"/>
<path d="M10547 7018 c-3 -18 -1 -37 4 -42 5 -6 9 7 9 32 0 50 -6 54 -13 10z"/>
<path d="M8222 6975 c0 -16 2 -22 5 -12 2 9 2 23 0 30 -3 6 -5 -1 -5 -18z"/>
<path d="M5890 6945 c1 -26 2 -28 11 -12 8 14 8 22 0 30 -8 8 -11 3 -11 -18z"/>
<path d="M10527 6937 c-4 -10 -7 -28 -6 -40 0 -21 1 -21 10 2 5 14 8 32 7 40
-3 13 -5 13 -11 -2z"/>
<path d="M12852 6925 c0 -16 2 -22 5 -12 2 9 2 23 0 30 -3 6 -5 -1 -5 -18z"/>
<path d="M8202 6911 c-14 -38 -11 -49 7 -27 7 8 11 25 9 38 -3 20 -5 19 -16
-11z"/>
<path d="M5882 6885 c0 -16 2 -22 5 -12 2 9 2 23 0 30 -3 6 -5 -1 -5 -18z"/>
<path d="M12832 6860 c0 -14 2 -19 5 -12 2 6 2 18 0 25 -3 6 -5 1 -5 -13z"/>
<path d="M10500 6850 c0 -11 2 -20 4 -20 2 0 6 9 9 20 3 11 1 20 -4 20 -5 0
-9 -9 -9 -20z"/>
<path d="M8187 6853 c-4 -3 -7 -13 -7 -22 1 -13 3 -13 11 2 11 19 8 33 -4 20z"/>
<path d="M5858 6827 c-3 -19 -2 -25 4 -19 6 6 8 18 6 28 -3 14 -5 12 -10 -9z"/>
<path d="M12814 6814 c-6 -17 -22 -54 -54 -129 -4 -11 -11 -27 -14 -35 -4 -8
-12 -24 -19 -35 -58 -97 -72 -122 -74 -135 -3 -21 27 20 57 77 13 27 27 50 30
53 3 3 14 25 24 50 28 67 42 102 57 132 7 16 9 31 6 34 -4 4 -10 -2 -13 -12z"/>
<path d="M8167 6803 c-4 -3 -7 -17 -7 -30 0 -12 -3 -23 -8 -23 -4 0 -15 -22
-25 -49 -21 -60 -22 -78 -1 -31 9 19 22 49 29 65 13 29 26 75 21 75 -2 0 -6
-3 -9 -7z"/>
<path d="M10486 6795 c-3 -8 -1 -15 4 -15 6 0 10 7 10 15 0 8 -2 15 -4 15 -2
0 -6 -7 -10 -15z"/>
<path d="M5823 6743 c-16 -33 -16 -43 -3 -43 6 0 10 9 10 19 0 11 5 23 10 26
12 7 13 25 3 25 -5 0 -14 -12 -20 -27z"/>
<path d="M10460 6737 c0 -7 -12 -37 -26 -66 -33 -66 -26 -78 8 -14 33 61 43
93 29 93 -6 0 -11 -6 -11 -13z"/>
<path d="M7552 6680 c0 -14 2 -19 5 -12 2 6 2 18 0 25 -3 6 -5 1 -5 -13z"/>
<path d="M5787 6660 c-10 -16 -13 -30 -8 -30 6 0 11 6 11 14 0 8 5 16 12 18 6
2 9 10 7 16 -2 7 -12 0 -22 -18z"/>
<path d="M7580 6634 c0 -8 5 -12 10 -9 6 4 8 11 5 16 -9 14 -15 11 -15 -7z"/>
<path d="M8076 6603 c-3 -10 -9 -24 -12 -30 -3 -7 -2 -13 3 -13 5 0 14 14 20
30 6 17 8 30 3 30 -4 0 -10 -8 -14 -17z"/>
<path d="M9870 6606 c0 -9 5 -16 10 -16 6 0 10 4 10 9 0 6 -4 13 -10 16 -5 3
-10 -1 -10 -9z"/>
<path d="M9911 6607 c-6 -8 -8 -17 -4 -20 11 -12 19 -7 20 13 2 24 -1 25 -16
7z"/>
<path d="M5280 6595 c0 -8 4 -15 10 -15 5 0 7 7 4 15 -4 8 -8 15 -10 15 -2 0
-4 -7 -4 -15z"/>
<path d="M2877 6586 c-3 -8 0 -19 7 -25 10 -9 12 -6 8 14 -5 29 -8 31 -15 11z"/>
<path d="M5257 6594 c-4 -4 -7 -14 -7 -23 0 -11 3 -12 11 -4 6 6 10 16 7 23
-2 6 -7 8 -11 4z"/>
<path d="M5751 6584 c0 -11 3 -14 6 -6 3 7 2 16 -1 19 -3 4 -6 -2 -5 -13z"/>
<path d="M7595 6590 c-3 -6 1 -7 9 -4 18 7 21 14 7 14 -6 0 -13 -4 -16 -10z"/>
<path d="M10381 6564 c0 -11 3 -14 6 -6 3 7 2 16 -1 19 -3 4 -6 -2 -5 -13z"/>
<path d="M7470 6563 c0 -5 5 -15 10 -23 8 -12 10 -11 10 8 0 12 -4 22 -10 22
-5 0 -10 -3 -10 -7z"/>
<path d="M5161 6555 c1 -19 18 -51 18 -35 0 8 -4 22 -9 30 -5 8 -9 11 -9 5z"/>
<path d="M5735 6550 c-3 -5 -1 -10 4 -10 6 0 11 5 11 10 0 6 -2 10 -4 10 -3 0
-8 -4 -11 -10z"/>
<path d="M8040 6528 c-12 -22 -12 -22 6 -6 10 10 15 20 12 24 -4 3 -12 -5 -18
-18z"/>
<path d="M7578 6533 c7 -3 16 -2 19 1 4 3 -2 6 -13 5 -11 0 -14 -3 -6 -6z"/>
<path d="M10362 6520 c0 -14 2 -19 5 -12 2 6 2 18 0 25 -3 6 -5 1 -5 -13z"/>
<path d="M2860 6520 c0 -5 5 -10 11 -10 5 0 7 5 4 10 -3 6 -8 10 -11 10 -2 0
-4 -4 -4 -10z"/>
<path d="M5206 6518 c7 -11 32 -10 39 2 3 6 -4 9 -19 8 -13 -1 -22 -6 -20 -10z"/>
<path d="M5187 6503 c-11 -11 -8 -20 7 -20 8 0 12 6 9 14 -6 15 -7 15 -16 6z"/>
<path d="M2840 6489 c0 -5 5 -7 10 -4 6 3 10 8 10 11 0 2 -4 4 -10 4 -5 0 -10
-5 -10 -11z"/>
<path d="M12631 6458 c-1 -10 -5 -18 -11 -18 -5 0 -10 -8 -10 -17 0 -14 3 -13
16 5 8 12 13 28 11 35 -3 7 -6 5 -6 -5z"/>
<path d="M12572 6375 c-7 -8 -9 -15 -4 -15 5 0 15 7 22 15 16 19 -1 19 -18 0z"/>
<path d="M12526 6319 c-15 -17 -25 -33 -22 -36 8 -8 26 7 26 23 0 9 5 12 13 8
6 -4 9 -4 5 1 -4 4 0 14 10 21 9 7 12 14 6 14 -6 0 -23 -14 -38 -31z"/>
<path d="M12477 6256 c-24 -14 -117 -103 -117 -111 0 -8 41 24 97 76 45 41 53
56 20 35z"/>
<path d="M12250 6074 c-47 -31 -109 -67 -137 -82 -29 -14 -53 -29 -53 -34 0
-4 -10 -8 -22 -9 -13 0 -17 -3 -10 -6 13 -5 119 44 142 67 3 3 25 15 48 28 24
13 53 32 65 42 12 11 31 26 42 34 46 35 3 12 -75 -40z"/>
<path d="M5270 6060 c-25 -16 -39 -30 -32 -30 7 0 31 14 54 30 53 39 37 39
-22 0z"/>
<path d="M7600 6068 c-19 -12 -37 -25 -40 -29 -3 -3 -12 -9 -20 -12 -13 -5
-13 -6 0 -6 8 -1 37 15 64 34 54 39 51 47 -4 13z"/>
<path d="M5190 6010 c0 -5 7 -10 15 -10 8 0 15 5 15 10 0 6 -7 10 -15 10 -8 0
-15 -4 -15 -10z"/>
<path d="M7480 5997 c-100 -54 -105 -57 -82 -57 12 0 22 4 22 9 0 5 13 12 30
16 16 4 33 11 36 16 3 6 16 14 28 19 12 5 15 9 6 9 -8 1 -26 -5 -40 -12z"/>
<path d="M9813 6003 c-13 -2 -23 -9 -23 -14 0 -12 2 -12 41 6 33 14 27 17 -18
8z"/>
<path d="M5158 5993 c7 -3 16 -2 19 1 4 3 -2 6 -13 5 -11 0 -14 -3 -6 -6z"/>
<path d="M5115 5970 c-16 -7 -17 -9 -3 -9 9 -1 20 4 23 9 7 11 7 11 -20 0z"/>
<path d="M9755 5970 c-3 -5 -2 -10 4 -10 5 0 13 5 16 10 3 6 2 10 -4 10 -5 0
-13 -4 -16 -10z"/>
<path d="M9715 5950 c-16 -7 -17 -9 -3 -9 9 -1 20 4 23 9 7 11 7 11 -20 0z"/>
<path d="M5058 5943 c6 -2 18 -2 25 0 6 3 1 5 -13 5 -14 0 -19 -2 -12 -5z"/>
<path d="M5010 5925 c-14 -7 -28 -11 -32 -9 -5 3 -8 0 -8 -6 0 -6 -4 -8 -10
-5 -5 3 -10 1 -10 -5 0 -12 19 -8 73 15 16 7 26 15 21 18 -5 3 -20 -1 -34 -8z"/>
<path d="M7323 5921 c-51 -20 -64 -31 -35 -31 12 0 22 5 22 10 0 6 8 10 18 10
9 0 24 4 32 10 26 16 6 17 -37 1z"/>
<path d="M9654 5925 c-20 -15 -11 -18 20 -6 11 4 15 10 9 14 -5 3 -19 0 -29
-8z"/>
<path d="M11953 5918 c-34 -11 -45 -28 -18 -28 8 0 15 5 15 10 0 6 8 10 18 10
9 0 24 5 32 10 13 9 13 10 0 9 -8 -1 -30 -6 -47 -11z"/>
<path d="M9610 5905 c-8 -9 -8 -15 -2 -15 12 0 26 19 19 26 -2 2 -10 -2 -17
-11z"/>
<path d="M4903 5883 c9 -2 23 -2 30 0 6 3 -1 5 -18 5 -16 0 -22 -2 -12 -5z"/>
<path d="M7218 5883 c6 -2 18 -2 25 0 6 3 1 5 -13 5 -14 0 -19 -2 -12 -5z"/>
<path d="M9543 5883 c9 -2 23 -2 30 0 6 3 -1 5 -18 5 -16 0 -22 -2 -12 -5z"/>
<path d="M11868 5883 c6 -2 18 -2 25 0 6 3 1 5 -13 5 -14 0 -19 -2 -12 -5z"/>
<path d="M4833 5863 c9 -2 25 -2 35 0 9 3 1 5 -18 5 -19 0 -27 -2 -17 -5z"/>
<path d="M7153 5863 c9 -2 25 -2 35 0 9 3 1 5 -18 5 -19 0 -27 -2 -17 -5z"/>
<path d="M9473 5863 c9 -2 23 -2 30 0 6 3 -1 5 -18 5 -16 0 -22 -2 -12 -5z"/>
<path d="M11793 5863 c9 -2 25 -2 35 0 9 3 1 5 -18 5 -19 0 -27 -2 -17 -5z"/>
<path d="M4750 5851 c0 -5 -12 -12 -27 -14 -18 -3 -13 -4 13 -4 22 0 46 7 52
14 10 10 8 13 -13 13 -14 0 -25 -4 -25 -9z"/>
<path d="M9360 5844 c-25 -14 -25 -14 13 -14 21 0 36 4 33 9 -4 5 0 12 6 14 7
3 4 5 -7 5 -11 0 -31 -6 -45 -14z"/>
<path d="M11705 5851 c-6 -5 -19 -11 -30 -14 -11 -3 2 -5 28 -4 30 0 46 4 44
11 -5 15 -30 19 -42 7z"/>
<path d="M7040 5840 c-22 -7 -21 -8 12 -9 20 -1 40 4 43 9 7 12 -19 12 -55 0z"/>
<path d="M6508 5793 c7 -3 16 -2 19 1 4 3 -2 6 -13 5 -11 0 -14 -3 -6 -6z"/>
<path d="M11178 5778 c9 -9 15 -9 24 0 9 9 7 12 -12 12 -19 0 -21 -3 -12 -12z"/>
<path d="M11120 5760 c0 -9 39 -25 46 -18 2 3 -7 10 -21 16 -14 6 -25 7 -25 2z"/>
<path d="M4235 5730 c3 -5 8 -10 11 -10 2 0 4 5 4 10 0 6 -5 10 -11 10 -5 0
-7 -4 -4 -10z"/>
<path d="M4920 4745 c0 -3 18 -34 40 -69 22 -35 40 -68 40 -75 0 -6 5 -11 10
-11 15 0 12 -26 -9 -63 -61 -108 -118 -209 -146 -257 -18 -30 -45 -77 -59
-105 -15 -27 -31 -57 -36 -65 -46 -75 -120 -202 -120 -207 0 -3 -15 -31 -34
-62 -32 -53 -53 -90 -98 -171 -11 -19 -29 -51 -40 -70 -11 -19 -36 -64 -56
-100 -19 -36 -38 -69 -42 -75 -4 -5 -22 -37 -40 -70 -18 -33 -36 -62 -39 -65
-3 -3 -20 -32 -37 -65 -55 -105 -69 -129 -81 -143 -7 -7 -13 -20 -13 -28 0 -8
-3 -14 -7 -14 -5 0 -13 -10 -19 -23 -15 -33 -58 -111 -64 -117 -3 -3 -13 -21
-24 -40 -21 -41 -56 -103 -120 -215 -25 -44 -46 -85 -46 -92 0 -10 71 -13 338
-13 l337 0 55 87 c30 47 64 102 75 122 11 20 22 38 25 41 7 7 29 43 37 60 4 8
11 18 17 22 6 4 286 8 622 8 579 0 612 -1 627 -18 10 -10 17 -21 17 -25 0 -3
26 -50 58 -104 32 -54 71 -119 86 -145 l27 -48 329 0 c210 0 330 4 330 10 0 5
-13 32 -30 58 -16 27 -30 54 -30 61 0 6 -4 11 -8 11 -4 0 -23 30 -42 68 -19
37 -38 69 -41 72 -4 3 -17 23 -29 45 -11 22 -32 58 -46 80 -13 22 -32 56 -42
75 -9 19 -20 37 -24 38 -5 2 -8 9 -8 16 0 7 -12 31 -28 52 -15 21 -40 64 -56
94 -16 30 -47 83 -67 117 -21 34 -50 83 -64 110 -14 26 -39 71 -56 98 -16 28
-34 59 -39 70 -12 25 -33 58 -41 65 -3 3 -13 19 -21 35 -16 31 -60 108 -116
204 -18 31 -35 64 -39 74 -3 9 -9 17 -13 17 -5 0 -11 9 -15 20 -5 16 -81 150
-125 220 -5 8 -27 47 -49 85 -23 39 -54 93 -71 120 -16 28 -34 59 -39 70 -6
11 -35 61 -66 110 -30 50 -58 98 -61 108 -6 16 -31 17 -340 17 -184 0 -334 -2
-334 -5z m462 -842 c10 -9 18 -20 18 -24 0 -9 81 -141 91 -149 3 -3 8 -10 10
-15 6 -14 92 -159 99 -165 8 -8 29 -43 39 -65 5 -11 24 -43 43 -71 63 -92 93
-84 -302 -84 -193 0 -350 4 -350 9 0 8 10 27 85 166 57 106 60 110 65 115 3 3
14 23 25 45 11 22 38 72 60 110 23 39 49 87 58 108 20 41 31 45 59 20z"/>
<path d="M9690 4744 c0 -6 56 -89 77 -113 35 -41 63 -80 63 -89 0 -5 11 -18
25 -28 14 -10 25 -24 25 -29 0 -6 13 -29 29 -51 27 -36 81 -134 81 -146 0 -3
-46 -8 -103 -11 -213 -12 -335 -42 -502 -124 -92 -45 -108 -54 -160 -88 -58
-38 -209 -181 -240 -226 -22 -33 -35 -55 -42 -69 -4 -8 -9 -17 -12 -20 -3 -3
-13 -21 -22 -40 -15 -33 -26 -60 -59 -150 -7 -20 -15 -100 -17 -184 -6 -164 4
-223 59 -345 32 -72 115 -201 129 -201 5 0 9 -4 9 -10 0 -14 176 -179 192
-180 4 0 13 -6 20 -12 20 -19 50 -38 71 -44 9 -4 17 -10 17 -15 0 -5 4 -9 10
-9 5 0 37 -13 72 -29 194 -88 275 -104 538 -104 193 -1 297 10 415 45 38 11
81 22 95 25 14 3 34 12 45 19 11 8 25 14 32 14 24 0 204 115 260 166 32 29 61
53 66 54 4 0 7 7 7 15 0 8 4 15 8 15 14 0 89 124 117 195 28 70 37 102 56 205
14 69 6 347 -10 363 -6 6 -11 22 -11 34 0 28 -62 217 -72 221 -5 2 -8 9 -8 16
0 17 -121 260 -132 264 -4 2 -8 9 -8 15 0 6 -6 18 -14 26 -8 9 -22 32 -33 51
-44 81 -188 290 -237 343 -14 15 -26 30 -26 34 0 6 -121 145 -158 181 -23 22
-25 22 -338 22 -172 0 -314 -3 -314 -6z m420 -963 c105 -31 140 -44 140 -53 0
-4 5 -8 10 -8 13 0 25 -9 95 -73 34 -30 65 -72 86 -115 33 -65 34 -71 33 -182
-1 -108 -3 -119 -31 -176 -36 -70 -148 -184 -182 -184 -6 0 -11 -3 -11 -8 0
-7 -14 -14 -94 -46 -94 -39 -347 -39 -443 0 -129 51 -217 125 -263 219 -45 92
-56 267 -21 340 5 11 17 37 26 57 19 41 107 134 136 143 10 4 19 10 19 13 0
13 102 58 180 80 63 18 248 14 320 -7z"/>
<path d="M6847 4073 c-4 -3 -7 -238 -6 -522 0 -612 4 -649 86 -777 99 -154
307 -289 520 -335 111 -24 206 -30 373 -25 96 4 179 11 184 16 6 6 22 10 37
10 74 0 272 87 344 152 26 24 55 50 65 58 36 32 98 128 119 185 13 33 28 69
35 80 8 14 12 190 14 593 l3 572 -273 -2 -273 -3 -6 -445 c-3 -245 -11 -461
-16 -480 -18 -62 -64 -139 -102 -169 -69 -54 -106 -65 -215 -65 -92 0 -107 3
-166 31 -82 38 -136 99 -161 179 -17 54 -19 100 -19 507 l0 447 -268 0 c-148
0 -272 -3 -275 -7z"/>
<path d="M11307 4073 c-4 -3 -7 -352 -7 -775 l0 -768 255 0 255 0 0 775 0 775
-248 0 c-137 0 -252 -3 -255 -7z"/>
<path d="M15881 104 c0 -11 3 -14 6 -6 3 7 2 16 -1 19 -3 4 -6 -2 -5 -13z"/>
<path d="M15601 84 c0 -11 3 -14 6 -6 3 7 2 16 -1 19 -3 4 -6 -2 -5 -13z"/>
<path d="M15281 54 c0 -11 3 -14 6 -6 3 7 2 16 -1 19 -3 4 -6 -2 -5 -13z"/>
</g>
</svg>
