<?xml version="1.0" encoding="UTF-8"?><svg id="Layer_1" xmlns="http://www.w3.org/2000/svg" viewBox="0 0 633.73 356.47"><defs><style>.cls-1{fill: currentColor;}</style></defs><path class="cls-1" d="M38.8,164.88v14.6h57.5v-14.6h-57.5ZM49.46,178.55h-5.76v-13.6h5.76v13.6ZM59.76,178.55h-5.76v-13.6h5.76v13.6ZM70.06,178.55h-5.76v-13.6h5.76v13.6ZM80.35,178.55h-5.76v-13.6h5.76v13.6ZM91.09,178.55h-5.76v-13.6h5.76v13.6Z"/><polygon class="cls-1" points="90.82 151.74 90.82 159.46 85.6 159.46 85.6 151.74 80.08 151.74 80.08 159.46 74.87 159.46 74.87 151.74 69.78 151.74 69.78 159.46 64.57 159.46 64.57 151.74 59.48 151.74 59.48 159.46 54.27 159.46 54.27 151.74 49.19 151.74 49.19 159.46 43.97 159.46 43.97 151.74 38.8 151.74 38.8 162.42 96.3 162.42 96.3 151.74 90.82 151.74"/><path class="cls-1" d="M100.05,176.56v27.68h30.32v-27.68h-30.32ZM103.02,198.79h-1.25v-6.62h1.25v6.62ZM103.02,187.73h-1.25v-4.65h1.25v4.65ZM105.03,198.79h-1.25v-6.62h1.25v6.62ZM105.03,187.73h-1.25v-4.65h1.25v4.65ZM109.08,198.79h-3.06v-6.62h3.06v6.62ZM109.08,187.73h-3.06v-4.65h3.06v4.65ZM111.32,198.79h-1.25v-6.62h1.25v6.62ZM111.32,187.73h-1.25v-4.65h1.25v4.65ZM113.32,198.79h-1.25v-6.62h1.25v6.62ZM113.32,187.73h-1.25v-4.65h1.25v4.65ZM117.37,198.79h-3.06v-6.62h3.06v6.62ZM117.37,187.73h-3.06v-4.65h3.06v4.65ZM119.61,198.79h-1.25v-6.62h1.25v6.62ZM119.61,187.73h-1.25v-4.65h1.25v4.65ZM121.62,198.79h-1.25v-6.62h1.25v6.62ZM121.62,187.73h-1.25v-4.65h1.25v4.65ZM125.67,198.79h-3.06v-6.62h3.06v6.62ZM125.67,187.73h-3.06v-4.65h3.06v4.65ZM127.91,198.79h-1.25v-6.62h1.25v6.62ZM127.91,187.73h-1.25v-4.65h1.25v4.65Z"/><polygon class="cls-1" points="379.02 261.65 392.34 261.65 379.02 227.88 379.02 261.65"/><polygon class="cls-1" points="165.46 243.69 165.46 261.65 178.09 261.65 170.29 243.69 165.46 243.69"/><polygon class="cls-1" points="133.01 217.56 128.08 245.2 138.15 245.2 133.01 217.56"/><path class="cls-1" d="M176.7,223.11c0-1.88-.36-4.7-1.08-5.9-.72-1.2-1.56-2.02-2.51-2.45-.95-.43-2.36-.64-4.21-.64h-3.43v18.04h3.93c4.87,0,7.3-3.59,7.3-9.04Z"/><rect class="cls-1" x="90.17" y="238.06" width="9.94" height="23.58"/><path class="cls-1" d="M465.52,202.33h-8.59l-12.45,59.31h10.96l1.42-7.16h13.84l1.42,7.16h10.96l-12.45-59.31h-5.12ZM458.75,244.73l4.93-28.43,5.14,28.43h-10.07Z"/><path class="cls-1" d="M520.38,226.73v-3.75c0-5.27-.44-9.15-1.32-11.65-.88-2.5-2.73-4.58-5.54-6.25-2.81-1.67-6.38-2.51-10.7-2.51-3.18,0-6,.54-8.46,1.62-2.45,1.08-4.37,2.56-5.75,4.45-1.38,1.88-2.21,3.84-2.49,5.87-.28,2.03-.42,5.09-.42,9.15v17.47c0,.05,0,.11,0,.16h0c0,4.07.14,7.12.42,9.15.18,1.28.57,2.53,1.18,3.75.97,2.45,2.73,4.4,5.3,5.84,1.31.73,2.8,1.29,4.45,1.68h.06c1.75.45,3.65.68,5.71.68,4.32,0,7.89-.84,10.7-2.51,2.81-1.67,4.66-3.76,5.54-6.25.88-2.49,1.32-6.38,1.32-11.65v-4.41l-7.83.65h-3.9v8.36c0,3.31-2.71,6.03-6.03,6.03s-6.03-2.71-6.03-6.03v-28.24c0-3.31,2.71-6.03,6.03-6.03s6.03,2.71,6.03,6.03v8.38h11.73Z"/><polygon class="cls-1" points="560.84 202.59 549.59 202.59 537.04 226.71 537.04 202.5 526.51 202.5 526.51 261.59 537.04 261.59 537.04 246.77 541.38 238.7 551.17 261.69 562.47 261.69 547.32 227.68 560.84 202.59"/><polygon class="cls-1" points="428.78 226.44 417.56 226.44 417.56 202.26 406.07 202.26 406.07 261.46 417.56 261.46 417.56 237.29 428.78 237.29 428.78 261.46 440.27 261.46 440.27 202.26 428.78 202.26 428.78 226.44"/><polygon class="cls-1" points="134.56 255.2 131.09 255.2 125.9 255.2 124.48 262.15 141.17 262.15 139.75 255.2 134.56 255.2"/><path class="cls-1" d="M350.15,246.26v-26.72c0-3.58-2.9-6.48-6.48-6.48s-6.48,2.9-6.48,6.48v26.72c0,3.58,2.9,6.48,6.48,6.48s6.48-2.9,6.48-6.48Z"/><rect class="cls-1" x="38.8" y="146.1" width="57.5" height="4.23"/><polyline class="cls-1" points="95.29 146.1 90.64 146.1 90.64 141.48 90.34 141.48 87.16 141.48 86.86 141.48 86.86 146.1 80.8 146.1 80.8 141.62 80.05 141.62 76.03 141.62 75.28 141.62 75.28 146.1 70.32 146.1 70.32 141.62 69.57 141.62 65.54 141.62 64.79 141.62 64.79 146.1 59.83 146.1 59.83 141.62 59.08 141.62 55.05 141.62 54.3 141.62 54.3 146.1 48.25 146.1 48.25 141.48 47.95 141.48 44.77 141.48 44.46 141.48 44.46 146.1 39.82 146.1"/><path class="cls-1" d="M38.8,184.13v17.72h57.5v-17.72h-57.5ZM50.02,200.95h-6.89v-11.81c0-1.5,1.44-2.71,3.21-2.71h.47c1.77,0,3.21,1.21,3.21,2.71v11.81ZM60.32,200.95h-6.89v-11.81c0-1.5,1.44-2.71,3.21-2.71h.47c1.77,0,3.21,1.21,3.21,2.71v11.81ZM70.62,200.95h-6.89v-11.81c0-1.5,1.44-2.71,3.21-2.71h.47c1.77,0,3.21,1.21,3.21,2.71v11.81ZM80.92,200.95h-6.89v-11.81c0-1.5,1.44-2.71,3.21-2.71h.47c1.77,0,3.21,1.21,3.21,2.71v11.81ZM91.65,200.95h-6.89v-11.81c0-1.5,1.44-2.71,3.21-2.71h.47c1.77,0,3.21,1.21,3.21,2.71v11.81Z"/><polygon class="cls-1" points="95.49 150.33 99.24 146.1 95.49 146.1 38.21 146.1 38.03 146.1 38.21 150.33 95.49 150.33"/><polygon class="cls-1" points="95.49 163.47 99.24 159.25 95.49 159.25 38.21 159.25 38.03 159.25 38.21 163.47 95.49 163.47"/><polygon class="cls-1" points="95.49 182.72 99.24 178.49 95.49 178.49 38.21 178.49 38.03 178.49 38.21 182.72 95.49 182.72"/><path class="cls-1" d="M181.29,168.32c-2.78-.87-5.47-1.75-8.19-2.55-5.45-1.61-20.37-5.9-20.37-5.9,0,0-14.92,4.29-20.37,5.9-2.72.8-5.41,1.68-8.19,2.55,1.12,2.27,2.25,4.5,3.32,6.76.18.38.82,3.29,1.03,3.76.02,0,.05,0,.1,0v25.2c-1.18.31,49.4.31,48.22,0v-25.2s.08,0,.1,0c.21-.47.85-3.38,1.03-3.76,1.08-2.26,2.2-4.49,3.32-6.76ZM133.76,199.8c.12,2.39-.94,2.39-3.33,2.43-.02,0-.04,0-.06,0v-23.45c2.11-.29,3.4-.03,3.41,2.22,0,5.51-.01,18.73-.01,18.8ZM137.42,202s.41-1.47.43-2.14c.14-5.4.23-10.79.34-16.19.03-1.29.11-2.59.12-3.88.01-1.14.83-1.04,1.56-1.06.76-.02,1.33.09,1.34,1.13.03,6.14.16,22.13.16,22.13h-3.95ZM146.12,202s.41-1.47.43-2.14c.14-5.4.23-10.79.34-16.19.03-1.29.11-2.59.12-3.88.01-1.14.83-1.04,1.56-1.06.76-.02,1.33.09,1.34,1.13.03,6.14.16,22.13.16,22.13h-3.95ZM154.81,201.98s.13-15.99.16-22.13c0-1.04.59-1.15,1.34-1.13.73.02,1.55-.08,1.56,1.06.01,1.29.09,2.59.12,3.88.11,5.4.2,10.79.34,16.19.02.67.43,2.14.43,2.14h-3.95ZM163.51,202.05s.13-15.99.16-22.13c0-1.04.59-1.15,1.34-1.13.73.02,1.55-.08,1.56,1.06.01,1.29.09,2.59.12,3.88.11,5.4.2,10.79.34,16.19.02.67.43,2.14.43,2.14h-3.95ZM175.1,202.23s-.04,0-.06,0c-2.4-.04-3.45-.04-3.33-2.43,0-.06-.02-13.28-.01-18.8,0-2.25,1.29-2.51,3.41-2.22v23.45ZM129.4,169.05l23.33-6.69,23.33,6.69h-46.67Z"/><polygon class="cls-1" points="287.3 130.52 290.97 130.52 289.87 120.76 289.97 120.76 289.65 112.3 288.62 112.3 288.29 120.76 288.39 120.76 287.3 130.52"/><path class="cls-1" d="M291.56,171.77c0-1.34-1.09-2.44-2.44-2.44s-2.44,1.09-2.44,2.44,1.09,2.44,2.44,2.44,2.44-1.09,2.44-2.44Z"/><path class="cls-1" d="M290.31,181.3l.97-.68h-8.06l-1.07.68c2.77,0,5.63,0,8.16,0Z"/><polygon class="cls-1" points="283.25 153.99 282.63 154.33 283.25 154.33 283.25 153.99"/><polygon class="cls-1" points="283.25 153.99 282.63 154.33 283.25 154.33 283.25 153.99"/><path class="cls-1" d="M282.15,181.3c2.77,0,5.63,0,8.16,0l.97-.68h-8.06l-1.07.68Z"/><polygon class="cls-1" points="283.22 180.62 291.28 180.62 291.25 180.64 292.64 180.64 292.66 180.62 296 180.62 296.91 180.62 289.07 175.24 281.22 180.62 283.22 180.62"/><rect class="cls-1" x="277.96" y="181.07" width="22.41" height="3.85"/><rect class="cls-1" x="276.73" y="198.53" width="24.89" height="3.85"/><rect class="cls-1" x="286.79" y="131.07" width="4.76" height="2.78"/><rect class="cls-1" x="284.88" y="134.24" width="8.57" height="2.78"/><path class="cls-1" d="M293.01,143.77v-5.54c0-.49-.4-.89-.89-.89h-5.91c-.49,0-.89.4-.89.89v5.54h7.68ZM291.21,139.34c0-.54.48-.98,1.07-.98h.5v4.75h-1.58v-3.76ZM288.04,139.29c0-.52.42-.93.93-.93h.32c.52,0,.93.42.93.93v3.83l-2.19-.02v-3.8ZM285.55,138.36h.5c.59,0,1.07.44,1.07.98v3.76h-1.58v-4.75Z"/><rect class="cls-1" x="284.67" y="185.43" width="2.38" height="16.67"/><rect class="cls-1" x="291.29" y="185.43" width="2.38" height="16.67"/><rect class="cls-1" x="297.9" y="185.43" width="2.38" height="16.67"/><rect class="cls-1" x="278.06" y="185.43" width="2.38" height="16.67"/><path class="cls-1" d="M297.32,168.03v-5.62h-.72v-7.82h-1.51v-7.97l-.1-1.05c-.26-.81-1.01-1.39-1.9-1.39h-1.02l-.04-.02h-2.08l.04.02h-1.64l.04-.02h-2.08l-.04.02h-1.02c-.89,0-1.64.59-1.9,1.39l-.1,1.05v7.97h-1.51v7.82h-.72v5.62l-.97.59v12h.25l-.02-.02,8.27-5.67c-1.46-.31-2.55-1.61-2.55-3.16,0-1.77,1.42-3.2,3.18-3.23,1.76.03,3.18,1.46,3.18,3.23,0,1.55-1.1,2.84-2.55,3.16l8.27,5.67-.02.02h.25v-12l-.97-.59ZM284.87,162.44h-2.68v-6.47h.61c1.14,0,2.07.77,2.07,1.71v4.75ZM291.31,162.52l-4.43-.04v-4.94c0-.85.85-1.53,1.89-1.53h.68c1.04,0,1.89.69,1.89,1.53v4.98s-.03,0-.03,0h0ZM289.17,151.66c-1.25,0-2.26-1.02-2.26-2.26s1.02-2.26,2.26-2.26,2.26,1.02,2.26,2.26-1.02,2.26-2.26,2.26ZM296.12,162.44h-2.68v-4.75c0-.95.93-1.71,2.07-1.71h.61v6.47Z"/><rect class="cls-1" x="220.97" y="195.01" width="1.17" height="2.53"/><rect class="cls-1" x="220.97" y="190.65" width="1.17" height="2.53"/><rect class="cls-1" x="224.63" y="195.01" width="1.17" height="2.53"/><rect class="cls-1" x="224.63" y="190.65" width="1.17" height="2.53"/><rect class="cls-1" x="228.29" y="195.01" width="1.17" height="2.53"/><rect class="cls-1" x="228.29" y="190.65" width="1.17" height="2.53"/><rect class="cls-1" x="231.95" y="195.01" width="1.17" height="2.53"/><rect class="cls-1" x="231.95" y="190.65" width="1.17" height="2.53"/><rect class="cls-1" x="235.61" y="195.01" width="1.17" height="2.53"/><rect class="cls-1" x="235.61" y="190.65" width="1.17" height="2.53"/><rect class="cls-1" x="239.27" y="195.01" width="1.17" height="2.53"/><rect class="cls-1" x="239.27" y="190.65" width="1.17" height="2.53"/><rect class="cls-1" x="205.69" y="192.16" width="3.06" height="6.62"/><rect class="cls-1" x="205.69" y="183.08" width="3.06" height="4.65"/><rect class="cls-1" x="209.74" y="192.16" width="1.25" height="6.62"/><rect class="cls-1" x="209.74" y="183.08" width="1.25" height="4.65"/><path class="cls-1" d="M176.1,176.56v27.68h28.98v-27.68h-28.98ZM179.81,198.79h-1.25v-6.62h1.25v6.62ZM179.81,187.73h-1.25v-4.65h1.25v4.65ZM183.86,198.79h-3.06v-6.62h3.06v6.62ZM183.86,187.73h-3.06v-4.65h3.06v4.65ZM186.1,198.79h-1.25v-6.62h1.25v6.62ZM186.1,187.73h-1.25v-4.65h1.25v4.65ZM188.11,198.79h-1.25v-6.62h1.25v6.62ZM188.11,187.73h-1.25v-4.65h1.25v4.65ZM192.16,198.79h-3.06v-6.62h3.06v6.62ZM192.16,187.73h-3.06v-4.65h3.06v4.65ZM194.4,198.79h-1.25v-6.62h1.25v6.62ZM194.4,187.73h-1.25v-4.65h1.25v4.65ZM196.4,198.79h-1.25v-6.62h1.25v6.62ZM196.4,187.73h-1.25v-4.65h1.25v4.65ZM200.45,198.79h-3.06v-6.62h3.06v6.62ZM200.45,187.73h-3.06v-4.65h3.06v4.65ZM202.69,198.79h-1.25v-6.62h1.25v6.62ZM202.69,187.73h-1.25v-4.65h1.25v4.65ZM204.69,198.79h-1.25v-6.62h1.25v6.62ZM204.69,187.73h-1.25v-4.65h1.25v4.65Z"/><path class="cls-1" d="M289.17,151.11c-.94,0-1.71-.77-1.71-1.71s.77-1.71,1.71-1.71,1.71.77,1.71,1.71-.77,1.71-1.71,1.71Z"/><path class="cls-1" d="M580.98,191.13h-1.98s-190.7-89.56-190.74-89.59l-.42-6.68h-6.48l-5.25,99.94-.29,6.89-185.83.83-151.96-.84v59.95h13.86c-1.65-.39-3.14-.94-4.45-1.68-2.79-1.56-4.64-3.71-5.54-6.47-.91-2.75-1.36-6.9-1.36-12.43v-16.49c0-4.07.14-7.12.42-9.15.28-2.03,1.11-3.99,2.49-5.87,1.38-1.88,3.3-3.36,5.75-4.45,2.45-1.08,5.27-1.62,8.46-1.62,4.32,0,7.89.84,10.7,2.51,2.81,1.67,4.66,3.75,5.54,6.25.88,2.49,1.32,6.38,1.32,11.65v3.75h-11.73v-8.38c0-3.31-2.71-6.03-6.03-6.03s-6.03,2.71-6.03,6.03v27.27c0,3.31,2.71,6.03,6.03,6.03s6.03-2.71,6.03-6.03v-8.04h11.73v2.2c0,5.84-.41,9.99-1.24,12.43-.83,2.44-2.65,4.59-5.47,6.43-1.45.94-3.07,1.64-4.86,2.1h14.47v-57.65h12.04v23.58h9.94v-23.58h12.04v57.65h1.66l12.45-57.65h13.71l12.45,57.65h1.58v-57.65h17.74c7.03,0,15.7,5.73,15.7,19.04s-7.72,17.12-7.72,17.12l10.13,21.49h3.6v-57.65h10.85v47.23h17.78v10.42h4.02v-57.65h29.13v10.72h-16.97v12.55h14.56v11.35h-14.56v12.45h16.97v10.57h10.49c-10.28-4.26-9.39-17.53-9.39-17.53h11.29l-.11,3.93c-.01.93,1.13,2.52,2.18,3.3,2.14,1.59,9.84,2.01,9.84-3.77,0-7.01-8.21-10.54-11.83-13.11-3.61-2.59-10.05-8.62-10.05-18.41,0-4.63,4.02-13.23,15.85-13.23,12.6,0,15.08,10.14,15.01,14.94l-.03,2.78h-10.46c0-3.79-1.76-6.95-5.35-6.95-1.36,0-4.95.14-4.95,3.98s4.91,7.23,7.17,8.67c6.47,4.16,10.54,8.48,12.2,11.14,1.66,2.67,1.93,5.06,1.85,10.99-.05,3.37-1.03,10.34-8.3,13.23h21.1v-46.8h-10.5v-10.85h33.04v10.85h-10.5v46.8h22.12c-5.87-2.88-9.92-8.89-9.92-15.86v-25.77c0-7.65,4.87-14.15,11.68-16.61l9.3-.75c8.18,1.55,14.37,8.73,14.37,17.36v25.77c0,6.97-4.05,12.99-9.92,15.86h16.57v-57.65h11.42l15.44,37.11v-39.4.36s-.33-7.55-.33-7.55h186.45v-3.39ZM384.7,123.35l1.91,67.78h-2.59l.68-67.78ZM383.74,202.06l.19-7.4h2.78l.2,7.4h-3.17ZM394.29,191.13l-1.37-19.48,8.07,19.48h-6.69ZM401.96,191.13l-9.24-22.33-.66-9.32,15.46,31.65h-5.56ZM408.53,191.13l-16.64-34.05-.41-5.86,22.15,39.91h-5.09ZM414.66,191.13l-23.33-42.05-.45-6.37,33.13,48.42h-9.35ZM425.11,191.13l-34.35-50.2-.34-4.83,41.45,55.03h-6.76ZM433,191.13l-42.7-56.69-.38-5.75,52.28,62.44h-9.2ZM443.39,191.13l-53.57-63.97-.44-4.67,62.34,68.64h-8.34ZM452.93,191.13l-63.66-70.1-.2-3.02,72.81,73.12h-8.95ZM463.15,191.13l-74.09-74.03-.1-1.38,80.27,75.41h-6.08ZM470.55,191.13l-81.61-76.43-.15-1.32,91.28,77.74h-9.52ZM481.47,191.13l-92.67-78.72-.06-.93,100.77,79.65h-8.04ZM490.98,191.13l-102.29-80.64-.07-1.07,110.06,81.7h-7.69ZM500.18,191.13l-111.6-82.64-.06-.9c31.43,21.2,109.1,74.96,121.64,83.54h-9.98ZM511.74,191.13c-7.72-5.32-111.18-76.46-123.24-84.48l-.03-.89,138.01,85.37h-14.74ZM528.21,191.13l-139.77-86.3-.06-.9,160.02,87.2h-20.19ZM550.27,191.13l-161.93-88.08-.04-.73,188.59,88.81h-26.63Z"/><polygon class="cls-1" points="234.75 189.41 217.92 189.41 217.92 201.55 241.33 201.55 241.33 188.28 234.75 188.28 234.75 189.41"/><path class="cls-1" d="M266.33,140.47c-19.11,1.2-33.87,4.27-51.92,8.85-3.04.77-6.08,1.69-9.01,2.78-.2.07-.32.24-.32.43v6.88c0,.32.38.54.73.43,15.33-5.26,29.6-6.94,46.65-9.03,5-.61,8.24-.93,13.36-.96.34,0,.65-.02.93-.05v-9.34c-.13,0-.27.02-.42.03Z"/><path class="cls-1" d="M233.05,120.35c-11.1,3.93-22,11.45-27.79,15.88-.11.09-.18.21-.18.34v4.61c0,.37.48.59.83.38,4.65-2.78,11.4-6.5,15.84-8.03,12.84-4.41,38.26-10.13,44.99-11.62v-9.85c-3.6.58-19.8,3.37-33.69,8.28Z"/><path class="cls-1" d="M264.15,154.54c-19.24.78-34.36,2.93-52.81,6.65-1.96.4-3.93.94-5.88,1.49-.22.06-.37.24-.37.44v6.72c0,.3.33.52.67.44,20.59-4.77,38.06-5.84,60.38-6.39.22,0,.42-.01.61-.03v-9.41c-.69,0-1.54.04-2.59.09Z"/><path class="cls-1" d="M263.81,126.81c-20.76,3.08-36.94,8.04-55.83,15.41-.71.28-1.64.81-2.68,1.46-.14.09-.22.23-.22.38v5.54c0,.34.42.56.77.41,13.45-5.85,25.42-9.25,40.91-11.86,7.08-1.19,12.37-2.11,19.66-2.5.11,0,.22-.02.33-.03v-9.24c-.77.1-1.73.24-2.93.42Z"/><path class="cls-1" d="M266.05,168.58c-21.35.02-38.71,1.17-59.46,4.2-.36.05-.72.11-1.08.18-.25.04-.42.23-.42.45v3.15h9.15v3.53c9-.54,24.66-1.55,31.67-2v-.3l-.87-1.62v-5.55h2.03v2.17h.89v-2.17h1.53v2.16h.92v-2.16h1.38v2.16h.92v-2.16h1.53v2.17h.89v-2.17h2.03v5.55l-.85,1.57c2.89.03,5.64.13,9.08.21.51.01,1.26.02,1.65.02v-9.39c-.22,0-.75,0-.99,0Z"/><path class="cls-1" d="M256.29,180.18v1.39h4.09v3.24l-1.39.28v16.46h-5.79v-6.75h-4.2v6.75h-5.73v-16.46l-1.45-.28v-3.24h4.09v-1.32c-10.62.21-20.78.83-31.67,1.97v20.52c16.97.01,52.81,0,52.81,0v-22.42h-.3c-.22,0-7.28-.14-10.46-.15ZM241.33,201.55h-23.41v-12.14h16.83v-1.13h6.58v13.27Z"/><path class="cls-1" d="M381.93,107.69l.07-.97c-10.86,7.23-89.29,61.12-115.25,78.99v1.09c22.63-15.58,87.12-60.17,115.19-79.11Z"/><polygon class="cls-1" points="382.19 103.95 382.25 103.05 266.74 165.88 266.74 166.86 382.19 103.95"/><polygon class="cls-1" points="382.06 105.81 382.13 104.86 266.74 176.1 266.74 177.14 382.06 105.81"/><path class="cls-1" d="M382.3,102.32l.05-.78s-62.24,29.24-115.6,54.3v.89l115.55-54.41Z"/><polygon class="cls-1" points="376.08 194.51 376.31 191.13 369.62 191.13 377.61 171.84 377.8 169.02 368.64 191.13 363.08 191.13 378.42 159.73 378.59 157.34 362.07 191.13 356.98 191.13 378.98 151.48 379.12 149.35 355.95 191.13 346.59 191.13 379.56 142.96 379.68 141.18 345.5 191.13 338.74 191.13 380 136.35 380.11 134.7 337.61 191.13 328.4 191.13 380.5 128.9 380.61 127.38 327.22 191.13 318.89 191.13 380.91 122.83 381.01 121.38 317.67 191.13 308.73 191.13 381.22 118.32 381.28 117.37 307.46 191.13 301.38 191.13 381.38 115.97 381.45 114.9 300.05 191.13 290.53 191.13 381.53 113.62 381.6 112.58 289.14 191.13 281.1 191.13 381.67 111.64 381.74 110.63 279.63 191.13 271.93 191.13 381.81 109.56 381.87 108.59 270.42 191.13 266.74 191.13 266.74 194.51 376.08 194.51"/><path class="cls-1" d="M589.9,232.38h.08c-2.17-2.19-5.28-4.75-9.35-7.25-2.26-1.38-7.17-4.76-7.17-8.3s3.59-3.81,4.95-3.81c3.59,0,5.56,4.04,5.56,7.67l11.38.09s.6-8.63-4.95-13.94c-2.28-2.37-5.81-4.13-11.17-4.13-2.89,0-8.2,1.3-8.2,1.3-7.27,2.77-8.25,9.44-8.3,12.66-.08,5.67.19,7.97,1.85,10.52.73,1.12,1.94,2.56,3.61,4.15h-.08c2.17,2.19,5.28,4.75,9.35,7.25,2.26,1.38,7.17,4.76,7.17,8.3s-3.59,3.81-4.95,3.81c-3.59,0-5.56-4.04-5.56-7.67l-11.38-.09s-.6,8.63,4.95,13.94c2.28,2.37,5.81,4.13,11.17,4.13,2.89,0,8.2-1.3,8.2-1.3,7.27-2.77,8.25-9.44,8.3-12.66.08-5.67-.19-7.97-1.85-10.52-.73-1.12-1.94-2.56-3.61-4.15Z"/></svg>