<?xml version="1.0" standalone="no"?>
<!DOCTYPE svg PUBLIC "-//W3C//DTD SVG 20010904//EN"
 "http://www.w3.org/TR/2001/REC-SVG-20010904/DTD/svg10.dtd">
<svg version="1.0" xmlns="http://www.w3.org/2000/svg"
 width="600.000000pt" height="74.000000pt" viewBox="0 0 600.000000 74.000000"
 preserveAspectRatio="xMidYMid meet">

<g transform="translate(0.000000,74.000000) scale(0.100000,-0.100000)"
fill="#000000" stroke="none">
<path d="M2360 581 c-110 -16 -162 -55 -175 -132 -14 -81 39 -115 193 -125
112 -7 132 -11 132 -29 0 -32 -172 -33 -195 -2 -9 13 -29 17 -84 17 l-71 0 0
-40 c0 -81 66 -112 236 -112 130 -1 201 19 243 67 25 29 31 45 31 81 0 25 -5
54 -10 64 -14 27 -90 47 -209 55 -56 4 -104 11 -106 16 -18 28 145 42 181 14
12 -9 44 -14 92 -15 l72 0 0 34 c0 44 -29 80 -77 94 -52 15 -186 22 -253 13z"/>
<path d="M1171 528 c-17 -86 -61 -344 -61 -356 0 -8 24 -12 74 -12 l74 0 6 30
c3 17 9 44 12 60 l6 30 133 0 c150 0 138 -6 151 82 l6 48 -131 -2 c-72 -1
-131 1 -131 5 0 4 0 14 0 22 0 13 22 15 139 15 l139 0 6 38 c4 20 9 49 12 65
l6 27 -215 0 -216 0 -10 -52z"/>
<path d="M1667 370 l-127 -210 79 0 79 0 22 35 22 35 104 0 103 0 9 -32 8 -33
81 -3 82 -3 -45 173 c-25 95 -49 190 -55 211 l-10 37 -112 0 -113 0 -127 -210z
m239 35 c8 -31 13 -59 11 -62 -3 -2 -27 -3 -55 -1 l-50 3 36 62 c21 33 38 60
40 58 2 -2 10 -29 18 -60z"/>
<path d="M2746 553 c-3 -16 -8 -45 -12 -65 l-6 -38 76 0 c89 0 84 16 52 -162
l-23 -128 77 0 77 0 22 128 c31 179 19 162 110 162 l78 0 9 65 10 65 -232 0
-232 0 -6 -27z"/>
<path d="M3265 558 c-11 -50 -65 -364 -65 -380 0 -17 15 -18 183 -18 100 0
199 5 219 10 20 6 48 24 62 41 46 54 30 158 -25 159 -8 0 -2 8 12 17 57 35 77
118 40 164 -19 24 -23 24 -220 27 l-200 3 -6 -23z m285 -107 c0 -25 -19 -31
-91 -31 -56 0 -59 1 -59 25 0 24 2 25 75 25 67 0 75 -2 75 -19z m-15 -156 c0
-18 -8 -20 -82 -23 -76 -3 -83 -1 -83 16 0 30 10 33 90 30 67 -3 75 -5 75 -23z"/>
<path d="M3805 558 c-12 -51 -65 -359 -65 -378 0 -18 6 -20 75 -20 l74 0 7 50
7 50 52 0 51 0 23 -50 23 -50 79 0 78 0 -26 61 c-24 56 -25 62 -10 71 80 45
115 174 63 235 -37 44 -84 53 -264 53 -159 0 -162 0 -167 -22z m298 -120 c2
-7 0 -21 -5 -30 -7 -15 -23 -18 -88 -18 -83 0 -89 4 -74 44 5 13 22 16 84 16
54 0 80 -4 83 -12z"/>
<path d="M4345 568 c-2 -7 -18 -96 -35 -198 -17 -102 -33 -191 -35 -197 -3
-10 45 -13 219 -13 l223 0 10 60 10 60 -144 0 c-136 0 -143 1 -143 20 0 19 7
20 144 20 l144 0 6 31 c14 73 21 69 -133 69 -134 0 -139 1 -134 20 5 19 14 20
148 20 l143 0 7 38 c3 20 9 47 12 60 l5 22 -221 0 c-169 0 -223 -3 -226 -12z"/>
<path d="M4883 376 c-68 -112 -123 -207 -123 -210 0 -3 35 -6 78 -6 l77 0 19
35 19 36 106 -3 105 -3 8 -33 9 -32 79 0 80 0 -6 28 c-4 15 -28 108 -53 207
l-47 180 -114 3 -115 2 -122 -204z m235 33 c7 -28 12 -55 12 -60 0 -5 -25 -9
-55 -9 l-54 0 36 60 c19 33 39 60 42 60 4 0 13 -23 19 -51z"/>
<path d="M5455 558 c-11 -50 -65 -368 -65 -382 0 -13 14 -16 75 -16 41 0 75 2
75 5 0 3 16 94 35 202 19 108 35 201 35 205 0 4 -34 8 -75 8 -69 0 -75 -2 -80
-22z"/>
<path d="M5703 483 c-61 -54 -113 -102 -116 -108 -2 -5 32 -56 75 -112 l80
-103 90 0 90 0 -28 38 c-15 20 -49 65 -76 99 -26 35 -48 67 -48 72 0 5 50 53
110 107 61 54 110 99 110 101 0 2 -40 3 -88 3 l-88 0 -111 -97z"/>
</g>
</svg>
