<?xml version="1.0" standalone="no"?>
<!DOCTYPE svg PUBLIC "-//W3C//DTD SVG 20010904//EN"
 "http://www.w3.org/TR/2001/REC-SVG-20010904/DTD/svg10.dtd">
<svg version="1.0" xmlns="http://www.w3.org/2000/svg"
 width="746.000000pt" height="515.000000pt" viewBox="0 0 746.000000 515.000000"
 preserveAspectRatio="xMidYMid meet">

<g transform="translate(0.000000,515.000000) scale(0.100000,-0.100000)"
fill="currentColor" stroke="none">
<path d="M0 2575 l0 -2575 3730 0 3730 0 0 2575 0 2575 -3730 0 -3730 0 0
-2575z m3975 2430 c244 -52 459 -168 630 -340 157 -157 270 -353 323 -559 l27
-106 47 0 48 0 0 -1135 0 -1135 -75 0 -75 0 0 813 -1 812 -49 -100 -50 -100 0
-712 0 -713 -25 0 -25 0 0 673 -1 672 -24 -30 -25 -30 0 -642 0 -643 -75 0
-75 0 -2 561 -3 560 -47 -37 -48 -37 0 -523 0 -524 -25 0 -25 0 0 506 0 506
-72 -41 -73 -40 -3 -465 -2 -466 -25 0 -25 0 0 454 0 454 -50 -16 -50 -16 0
-438 0 -438 -25 0 -25 0 0 431 c0 365 -2 430 -14 426 -8 -3 -41 -11 -75 -18
l-61 -12 0 -413 0 -414 -25 0 -25 0 0 410 0 410 -25 0 -25 0 0 -495 0 -495
-25 0 -25 0 0 495 c0 488 0 495 -20 495 -20 0 -20 -7 -20 -495 l0 -495 -25 0
-25 0 0 495 0 495 -25 0 -25 0 0 -410 0 -410 -55 0 -55 0 0 419 c0 410 0 419
-20 424 -20 5 -20 0 -20 -419 l0 -424 -80 0 -80 0 0 449 c0 440 0 449 -20 454
-20 5 -20 0 -20 -449 l0 -454 -25 0 -25 0 0 465 0 465 -42 21 c-24 12 -67 37
-96 55 -29 19 -55 34 -57 34 -3 0 -5 -234 -5 -520 l0 -520 -25 0 -25 0 -2 546
-3 547 -22 15 -23 14 0 -561 0 -561 -50 0 -50 0 0 613 -1 612 -24 30 -25 30 0
-642 0 -643 -25 0 -25 0 0 675 0 675 -41 67 c-23 38 -57 100 -75 138 l-32 70
-1 -812 -1 -813 -50 0 -50 0 0 1135 0 1135 23 0 c20 0 25 11 49 106 53 206
166 402 323 559 198 199 456 323 745 359 66 8 305 -4 375 -19z m-2555 -2225
l0 -1220 -25 0 -25 0 0 1220 0 1220 25 0 25 0 0 -1220z m100 0 l0 -1220 -25 0
-25 0 0 1220 0 1220 25 0 25 0 0 -1220z m200 85 l0 -1135 -75 0 -75 0 0 1135
0 1135 75 0 75 0 0 -1135z m150 0 l0 -1135 -50 0 -50 0 0 1135 0 1135 50 0 50
0 0 -1135z m200 0 l0 -1135 -25 0 -25 0 0 1135 0 1135 25 0 25 0 0 -1135z
m150 0 l0 -1135 -25 0 -25 0 0 1135 0 1135 25 0 25 0 0 -1135z m140 0 l0
-1135 -50 0 -50 0 0 1135 0 1135 50 0 50 0 0 -1135z m2830 0 c0 -1128 0 -1135
-20 -1135 -20 0 -20 7 -20 1135 0 1128 0 1135 20 1135 20 0 20 -7 20 -1135z
m200 0 l0 -1135 -75 0 -75 0 0 1135 0 1135 75 0 75 0 0 -1135z m150 0 l0
-1135 -25 0 -25 0 0 1135 0 1135 25 0 25 0 0 -1135z m200 0 l0 -1135 -75 0
-75 0 0 1135 0 1135 75 0 75 0 0 -1135z m100 0 l0 -1135 -25 0 -25 0 0 1135 0
1135 25 0 25 0 0 -1135z m150 -85 l0 -1220 -25 0 -25 0 0 1220 0 1220 25 0 25
0 0 -1220z m100 0 l0 -1220 -25 0 -25 0 0 1220 0 1220 25 0 25 0 0 -1220z
m-67 -1357 c-7 -2 -13 -20 -13 -39 0 -19 -4 -34 -10 -34 -5 0 -10 15 -10 34 0
19 -6 37 -12 39 -7 3 3 5 22 5 19 0 29 -2 23 -5z m45 -20 l9 -28 13 28 c20 40
30 33 29 -20 -2 -46 -2 -46 -8 -13 l-6 35 -14 -35 -13 -35 -13 35 -13 35 -4
-35 c-4 -31 -5 -29 -6 13 -2 52 11 62 26 20z m-4139 -119 c79 -68 108 -170 78
-275 -19 -63 -71 -129 -121 -153 -19 -9 -59 -16 -90 -16 l-56 0 0 -100 0 -100
-65 0 -65 0 0 340 0 340 138 0 138 0 43 -36z m291 -249 l0 -285 105 0 105 0 0
-55 0 -55 -170 0 -170 0 0 340 0 340 65 0 65 0 0 -285z m574 258 c17 -84 116
-632 116 -642 0 -7 -23 -11 -64 -11 l-64 0 -7 33 c-14 70 -10 67 -90 67 -80 0
-76 3 -90 -67 l-7 -33 -64 0 c-44 0 -64 4 -64 13 0 6 28 159 62 340 l63 327
102 0 101 0 6 -27z m365 -169 l86 -190 -4 193 -3 193 61 0 61 0 0 -340 0 -340
-45 0 -46 0 -89 183 -88 182 -1 -182 -1 -183 -60 0 -60 0 0 341 0 340 51 -3
51 -3 87 -191z m651 136 l0 -60 -110 0 -110 0 0 -80 0 -80 95 0 95 0 0 -55 0
-55 -95 0 -95 0 0 -90 0 -90 110 0 110 0 0 -55 0 -55 -175 0 -175 0 0 340 0
340 175 0 175 0 0 -60z m210 -225 l0 -285 100 0 100 0 0 -55 0 -55 -170 0
-170 0 0 340 0 340 70 0 70 0 0 -285z m594 243 c43 -50 73 -125 88 -225 21
-135 -17 -291 -92 -376 l-33 -38 -110 3 -110 3 -33 48 c-51 74 -76 150 -81
252 -8 138 32 273 100 348 25 26 29 27 131 27 l104 0 36 -42z m536 -18 l0 -60
-90 0 c-104 0 -108 -3 -134 -105 -20 -76 -20 -164 0 -240 23 -90 36 -105 89
-105 l45 0 0 135 0 135 65 0 65 0 0 -112 c0 -126 -10 -173 -47 -230 l-26 -38
-113 0 -114 0 -35 48 c-54 73 -77 144 -83 248 -7 145 27 259 103 343 l37 41
119 0 119 0 0 -60z m250 -280 l0 -340 -65 0 -65 0 0 340 0 340 65 0 65 0 0
-340z m236 207 c18 -71 34 -130 36 -132 2 -2 19 56 37 130 l33 135 70 0 c54 0
69 -3 65 -13 -3 -7 -24 -81 -48 -164 l-42 -151 46 -166 c26 -92 47 -171 47
-176 0 -6 -30 -10 -68 -10 l-68 0 -34 140 c-19 77 -36 138 -38 136 -2 -3 -15
-49 -28 -103 -14 -54 -30 -115 -35 -135 l-10 -38 -69 0 c-39 0 -70 1 -70 3 0
1 22 80 50 176 l49 174 -44 156 c-25 85 -45 159 -45 164 0 4 30 7 67 5 l67 -3
32 -128z m-4300 -852 c81 -33 84 -178 5 -219 -16 -9 -53 -16 -81 -16 l-50 0 0
125 0 125 45 0 c25 0 61 -7 81 -15z m134 -110 c0 -104 -2 -125 -15 -125 -13 0
-15 21 -15 125 0 104 2 125 15 125 13 0 15 -21 15 -125z m201 112 c9 -7 21
-22 27 -34 17 -32 -12 -39 -32 -7 -21 31 -66 32 -92 3 -14 -15 -19 -36 -19
-74 0 -38 5 -59 19 -74 25 -28 70 -27 90 1 24 34 20 48 -14 48 -20 0 -30 5
-30 15 0 11 12 15 45 15 l45 0 0 -65 c0 -58 -12 -85 -22 -54 -3 9 -9 9 -25 0
-75 -39 -143 15 -143 114 0 52 12 82 44 107 24 20 84 23 107 5z m124 -113 c0
-99 -3 -119 -15 -119 -12 0 -16 20 -18 109 -3 117 1 140 21 133 9 -3 12 -36
12 -123z m203 109 c2 -9 -8 -13 -32 -13 l-36 0 0 -110 c0 -90 -3 -110 -15
-110 -11 0 -15 21 -17 108 l-3 107 -32 3 c-21 2 -33 9 -33 18 0 12 15 14 82
12 54 -2 83 -7 86 -15z m134 -108 c20 -65 35 -121 33 -123 -11 -11 -34 10 -40
37 -6 29 -9 31 -55 31 -46 0 -49 -2 -55 -30 -7 -30 -21 -47 -32 -37 -4 5 61
217 74 240 3 4 12 7 21 5 11 -2 28 -41 54 -123z m100 18 l3 -108 58 -3 c85 -4
70 -26 -21 -30 l-72 -3 0 126 c0 103 3 125 15 125 11 0 15 -21 17 -107z m317
9 l35 -94 36 94 c29 75 40 94 58 96 22 3 22 2 22 -122 0 -105 -2 -126 -15
-126 -12 0 -15 18 -15 103 l-1 102 -38 -99 c-21 -55 -42 -101 -48 -103 -6 -2
-23 29 -38 69 -55 146 -53 145 -54 31 -1 -62 -5 -103 -11 -103 -6 0 -10 49
-10 126 0 124 0 125 22 122 19 -2 29 -20 57 -96z m333 -22 c43 -129 43 -130
24 -130 -8 0 -20 16 -26 36 -12 34 -13 35 -58 32 -43 -3 -47 -6 -56 -35 -5
-18 -15 -33 -24 -33 -9 0 -12 6 -8 15 3 9 20 62 37 118 37 121 37 119 57 115
10 -2 29 -43 54 -118z m98 -5 c0 -104 -2 -125 -15 -125 -13 0 -15 21 -15 125
0 104 2 125 15 125 13 0 15 -21 15 -125z m152 35 l53 -91 5 87 c3 57 9 89 18
92 9 3 12 -26 12 -122 0 -103 -3 -126 -14 -126 -8 0 -42 46 -75 103 l-61 102
0 -102 c0 -85 -3 -103 -15 -103 -13 0 -15 21 -15 125 0 118 1 125 20 125 14 0
34 -25 72 -90z m288 75 c0 -10 -11 -15 -35 -15 l-35 0 0 -110 c0 -91 -3 -110
-15 -110 -12 0 -15 19 -15 110 l0 110 -35 0 c-24 0 -35 5 -35 15 0 12 16 15
85 15 69 0 85 -3 85 -15z m187 -2 c3 -8 -15 -13 -59 -15 l-63 -3 0 -35 c0 -35
0 -35 48 -38 26 -2 47 -7 47 -12 0 -5 -21 -10 -47 -12 l-48 -3 0 -40 0 -40 63
-3 c46 -2 62 -7 62 -17 0 -12 -17 -15 -80 -15 l-80 0 0 125 0 126 77 -3 c48
-2 78 -7 80 -15z m134 -75 l54 -93 3 93 c2 73 6 92 17 92 12 0 15 -22 15 -126
0 -114 -2 -125 -17 -122 -10 2 -42 45 -73 97 l-55 95 -5 -94 c-3 -62 -9 -95
-17 -98 -10 -3 -13 26 -13 122 0 117 1 126 19 126 13 0 35 -28 72 -92z m271
-33 c20 -65 35 -121 33 -123 -11 -11 -34 10 -40 37 -6 29 -9 31 -55 31 -46 0
-49 -2 -55 -30 -7 -30 -21 -47 -32 -37 -4 5 61 217 74 240 3 4 12 7 21 5 11
-2 28 -41 54 -123z m159 33 l54 -93 3 93 c2 73 6 92 17 92 12 0 15 -22 15
-126 0 -114 -2 -125 -17 -122 -10 2 -42 45 -73 97 l-55 95 -5 -94 c-3 -62 -9
-95 -17 -98 -10 -3 -13 26 -13 122 0 117 1 126 19 126 13 0 35 -28 72 -92z
m280 79 c15 -11 39 -49 39 -61 0 -16 -30 -3 -44 19 -11 17 -26 25 -46 25 -40
0 -60 -32 -60 -95 0 -63 20 -95 61 -95 21 0 34 8 47 28 9 16 23 27 30 25 18
-7 15 -18 -14 -52 -70 -84 -183 10 -160 133 12 66 100 109 147 73z m229 -2 c0
-12 -13 -15 -60 -15 l-60 0 0 -40 0 -40 45 0 c25 0 45 -4 45 -10 0 -5 -20 -10
-45 -10 l-45 0 0 -45 0 -45 60 0 c47 0 60 -3 60 -15 0 -13 -13 -15 -77 -13
l-78 3 -3 109 c-1 61 0 116 2 123 8 20 156 18 156 -2z m263 4 c30 -16 37 -28
37 -66 0 -21 -7 -37 -20 -46 l-20 -14 20 -44 c23 -52 25 -69 6 -69 -7 0 -24
25 -36 55 -21 51 -25 55 -56 55 l-34 0 0 -55 c0 -42 -3 -55 -15 -55 -13 0 -15
21 -15 125 l0 125 56 0 c30 0 65 -5 77 -11z m244 -6 c3 -8 -15 -13 -59 -15
l-63 -3 0 -35 c0 -35 0 -35 48 -38 26 -2 47 -7 47 -12 0 -5 -21 -10 -47 -12
l-48 -3 0 -40 0 -40 63 -3 c46 -2 62 -7 62 -17 0 -12 -17 -15 -80 -15 l-80 0
0 125 0 126 77 -3 c48 -2 78 -7 80 -15z m188 -9 c26 -28 33 -54 14 -54 -6 0
-20 11 -31 25 -28 36 -73 34 -93 -5 -34 -65 -8 -160 44 -160 27 0 54 21 62 47
3 8 9 9 18 4 11 -7 11 -13 0 -32 -43 -83 -154 -55 -173 44 -22 116 89 207 159
131z m208 0 c48 -48 49 -145 1 -196 -79 -82 -191 22 -155 142 23 77 103 105
154 54z m210 17 c13 -5 30 -23 37 -40 10 -26 10 -35 -4 -56 -9 -14 -21 -25
-26 -25 -5 0 1 -24 14 -54 13 -30 22 -57 18 -60 -13 -14 -25 -3 -48 49 -24 51
-28 55 -60 55 l-34 0 0 -56 c0 -40 -3 -55 -12 -52 -13 5 -25 207 -14 235 6 15
92 18 129 4z m222 -7 c23 -10 39 -28 49 -55 20 -49 20 -59 -1 -110 -19 -48
-57 -69 -128 -69 l-45 0 0 125 0 125 46 0 c25 0 61 -7 79 -16z m235 -9 c18
-20 21 -28 12 -37 -10 -10 -16 -7 -28 10 -19 27 -81 31 -91 6 -10 -26 10 -48
55 -59 55 -13 82 -38 82 -74 0 -40 -40 -71 -92 -71 -31 0 -46 7 -70 31 -25 24
-28 33 -18 39 9 6 21 1 37 -16 42 -46 127 -22 107 30 -5 14 -60 36 -91 36 -15
0 -53 48 -53 67 0 8 11 25 25 38 34 35 93 34 125 0z m-5165 -130 c0 -12 -50
-19 -71 -11 -9 3 -12 11 -9 16 8 14 80 9 80 -5z m5385 0 c0 -11 -11 -15 -40
-15 -29 0 -40 4 -40 15 0 11 11 15 40 15 29 0 40 -4 40 -15z"/>
<path d="M3599 5000 c-215 -25 -439 -115 -609 -245 -131 -101 -275 -275 -348
-420 -143 -287 -167 -628 -65 -935 184 -550 756 -902 1323 -815 136 21 230 49
347 105 357 170 595 475 679 870 24 115 24 333 1 453 -36 178 -114 358 -218
497 -70 93 -213 232 -299 288 -238 157 -542 233 -811 202z m954 -428 c29 -25
23 -103 -14 -176 -40 -79 -146 -219 -252 -332 l-84 -89 43 -534 43 -534 -62
-88 c-34 -49 -65 -88 -68 -89 -3 0 -59 213 -124 473 -65 259 -121 477 -124
483 -5 9 -482 -382 -548 -449 -19 -20 -22 -40 -33 -202 -11 -173 -12 -181 -37
-207 -14 -15 -29 -25 -33 -23 -4 2 -46 69 -94 147 l-88 143 -96 59 c-54 33
-121 75 -150 94 l-54 34 28 29 c27 29 29 29 143 29 64 0 152 3 196 6 l80 7
223 283 c123 156 224 286 225 290 1 3 -205 69 -458 145 -253 77 -464 141 -469
142 -6 2 24 24 65 50 l76 47 507 -40 c279 -22 523 -40 543 -40 31 0 47 11 131
91 150 143 302 249 387 269 37 9 74 2 98 -18z"/>
<path d="M1740 1079 l0 -120 46 3 c65 4 89 37 89 122 0 89 -20 116 -85 116
l-50 0 0 -121z"/>
<path d="M2681 1175 c-1 -5 -12 -75 -26 -155 -14 -80 -25 -151 -25 -157 0 -9
18 -13 55 -13 38 0 55 4 54 13 -1 22 -57 322 -58 312z"/>
<path d="M4410 1144 c-30 -81 -36 -192 -16 -279 23 -94 37 -115 82 -115 32 0
37 4 54 43 45 102 46 276 2 367 -15 31 -22 35 -59 38 l-41 3 -22 -57z"/>
<path d="M1240 225 l0 -95 34 0 c22 0 45 9 62 23 23 20 27 32 27 72 0 40 -4
52 -27 72 -17 14 -40 23 -62 23 l-34 0 0 -95z"/>
<path d="M2052 251 c-16 -52 -16 -51 18 -51 17 0 30 3 30 6 0 17 -24 84 -30
84 -4 0 -12 -17 -18 -39z"/>
<path d="M2807 256 c-9 -27 -15 -51 -13 -53 2 -3 17 -3 33 -1 l30 3 -17 50
-17 50 -16 -49z"/>
<path d="M3932 251 c-16 -52 -16 -51 18 -51 17 0 30 3 30 6 0 17 -24 84 -30
84 -4 0 -12 -17 -18 -39z"/>
<path d="M4840 275 c0 -42 2 -45 28 -45 49 0 72 12 79 38 8 33 -18 52 -69 52
l-38 0 0 -45z"/>
<path d="M5476 298 c-10 -13 -16 -43 -16 -73 0 -63 20 -95 60 -95 21 0 35 8
47 27 24 36 23 115 -2 143 -24 27 -70 26 -89 -2z"/>
<path d="M5697 313 c-4 -3 -7 -21 -7 -40 0 -40 17 -50 69 -37 39 10 53 42 31
70 -13 14 -81 20 -93 7z"/>
<path d="M5920 225 l0 -95 35 0 c53 0 85 36 85 95 0 59 -32 95 -85 95 l-35 0
0 -95z"/>
</g>
</svg>
