<?xml version="1.0" standalone="no"?>
<!DOCTYPE svg PUBLIC "-//W3C//DTD SVG 20010904//EN"
 "http://www.w3.org/TR/2001/REC-SVG-20010904/DTD/svg10.dtd">
<svg version="1.0" xmlns="http://www.w3.org/2000/svg"
 width="200.000000pt" height="200.000000pt" viewBox="0 0 200.000000 200.000000"
 preserveAspectRatio="xMidYMid meet">

<g transform="translate(0.000000,200.000000) scale(0.100000,-0.100000)"
fill="#000000" stroke="none">
<path d="M933 1414 c-130 -88 -158 -99 -253 -99 -64 0 -99 6 -143 23 -214 83
-372 -11 -463 -273 -21 -63 -28 -102 -30 -180 -1 -55 0 -86 2 -70 8 46 56 228
66 248 20 39 25 10 20 -115 -5 -156 6 -213 68 -346 57 -120 59 -122 145 -122
46 0 76 5 82 13 5 6 15 37 22 67 15 68 55 129 98 147 66 27 163 9 206 -40 26
-29 59 -103 66 -147 l6 -35 86 -3 86 -3 7 63 c9 88 23 133 52 168 31 36 42 37
114 9 189 -72 348 -77 470 -14 151 77 261 253 277 447 3 38 10 71 14 74 5 3 9
12 9 20 0 19 -37 18 -48 -2 -18 -32 -135 -143 -167 -158 -86 -41 -145 -8 -145
81 0 29 -2 53 -4 53 -2 0 -20 -7 -39 -15 -54 -23 -141 -19 -196 7 -28 14 -89
67 -157 135 -134 137 -143 139 -251 67z m-389 -273 c10 -16 -5 -41 -24 -41
-20 0 -30 17 -22 38 5 14 38 16 46 3z m-144 -31 c0 -25 4 -30 24 -30 41 0 56
-25 56 -91 0 -52 -2 -59 -19 -59 -17 0 -20 8 -23 52 -2 41 -7 54 -20 56 -15 3
-18 -5 -18 -52 0 -48 -3 -56 -19 -56 -24 0 -29 13 -25 73 1 26 1 47 -1 47 -2
0 -15 -4 -29 -10 -23 -8 -26 -15 -26 -60 0 -43 -3 -50 -20 -50 -18 0 -20 7
-20 75 l0 75 51 -4 c46 -3 50 -2 46 16 -8 28 2 48 24 48 14 0 19 -7 19 -30z
m138 -108 c3 -67 1 -72 -18 -72 -18 0 -20 6 -20 68 0 38 3 72 7 76 18 17 28
-7 31 -72z m139 48 c7 -14 13 -47 13 -73 0 -44 -2 -48 -22 -45 -20 3 -23 10
-26 56 -2 35 -7 52 -16 52 -18 0 -26 -22 -26 -71 0 -32 -3 -39 -20 -39 -18 0
-20 7 -20 68 0 38 3 71 6 75 3 3 27 5 52 4 39 -2 49 -6 59 -27z m152 4 c37
-47 24 -102 -28 -123 -24 -10 -34 -10 -59 3 -16 8 -32 23 -36 31 -21 55 15
115 69 115 24 0 39 -7 54 -26z m173 -51 c4 -106 -8 -139 -59 -149 -26 -5 -37
-1 -57 19 -33 33 -33 47 -1 47 14 0 25 -4 25 -10 0 -5 11 -10 25 -10 16 0 25
6 25 15 0 11 -7 14 -23 10 -37 -10 -77 28 -77 74 0 56 28 80 89 79 l50 -1 3
-74z m112 68 c6 -10 -5 -24 -29 -37 -14 -8 -21 -25 -25 -60 -4 -35 -9 -49 -20
-49 -11 0 -16 15 -18 64 -2 35 -1 69 2 76 5 13 83 19 90 6z m141 -21 c8 -36 3
-110 -7 -116 -5 -3 -27 -7 -49 -9 -33 -4 -45 0 -65 20 -30 30 -31 73 -4 108
17 22 28 26 70 25 45 -1 50 -4 55 -28z m202 0 c7 -14 13 -46 13 -72 0 -45 -2
-48 -25 -48 -24 0 -25 3 -25 56 0 73 -24 70 -28 -4 -3 -44 -6 -52 -23 -52 -16
0 -19 7 -19 43 0 41 -13 77 -24 66 -3 -3 -6 -29 -7 -58 -2 -47 -4 -52 -23 -49
-18 3 -22 11 -24 52 -6 92 -4 94 90 92 77 -1 83 -3 95 -26z m93 -75 c26 -31
-18 -71 -47 -42 -19 19 -8 57 16 57 10 0 24 -7 31 -15z"/>
<path d="M752 1028 c-18 -18 -14 -46 7 -58 34 -18 67 30 39 58 -7 7 -17 12
-23 12 -6 0 -16 -5 -23 -12z"/>
<path d="M904 1015 c-9 -36 17 -65 41 -45 23 19 15 64 -12 68 -17 3 -24 -3
-29 -23z"/>
<path d="M1160 1021 c-11 -22 1 -61 19 -61 16 0 33 29 29 52 -4 30 -34 35 -48
9z"/>
</g>
</svg>
