<svg width="683" height="342" viewBox="0 0 683 342" fill="none" xmlns="http://www.w3.org/2000/svg">
<g clip-path="url(#clip0_18_794)">
<path d="M107.875 90H111.688C113.844 90.0623 115.969 90.1868 118.125 90.4048C117.281 93.6747 116.375 96.9445 115.531 100.214C103.437 99.2489 91.125 101.429 80.125 106.474C78.4688 103.578 76.75 100.713 75.0625 97.8164C85.2813 92.9584 96.5313 90.2491 107.875 90Z" fill="black"/>
<path d="M132.156 103.578C133.031 100.37 133.906 97.1313 134.781 93.9238C143.812 96.9134 152.344 101.367 159.812 107.252C164.531 110.989 168.844 115.256 172.656 119.927C169.719 121.608 166.781 123.321 163.844 124.972C155.469 115.131 144.437 107.626 132.156 103.578Z" fill="black"/>
<path d="M34.875 140.2C40.3125 127.058 49.1875 115.318 60.5313 106.661C62.2188 109.557 63.9063 112.484 65.5938 115.38C56.4688 122.605 49.25 132.134 44.625 142.815C41.375 141.944 38.125 141.072 34.875 140.2Z" fill="black"/>
<path d="M103.875 108.622C114.844 107.532 126.094 109.432 136.094 114.072C145.594 118.463 153.938 125.283 160.156 133.691C166.406 142.13 170.469 152.189 171.781 162.59C173.344 174.797 171.219 187.441 165.625 198.403C160.063 209.395 151.156 218.675 140.375 224.686C130.219 230.385 118.438 233.125 106.813 232.533C96.9688 232.066 87.2188 229.201 78.7188 224.25C69.0313 218.644 60.9063 210.392 55.4688 200.645C49.8125 190.586 47.0938 179.002 47.6563 167.542C48.125 156.954 51.4063 146.521 57.0313 137.553C63.5313 127.183 73.1563 118.774 84.3438 113.761C90.5313 111.02 97.1563 109.245 103.875 108.622ZM98.0313 118.992C88.2813 120.985 79.1875 125.999 72.3125 133.162C64.8125 140.293 59.5938 149.853 57.7813 160.037C56.875 164.77 56.9688 169.597 57.0313 174.362C57.4375 184.794 61.2813 195.07 67.875 203.167C69.6563 205.409 71.7188 207.433 73.7813 209.426C80.5938 215.997 89.375 220.513 98.7188 222.257C103.813 223.253 109.063 223.253 114.219 223.035C113.094 217.181 112.406 211.233 110.469 205.565C109.531 203.011 108.219 200.645 106.75 198.371C106.438 197.873 106.094 197.375 105.594 197.063C103.719 196.005 101.75 195.039 99.625 194.541C96.625 193.451 93.1875 192.579 91.1563 189.901C89.0938 187.752 88.8125 184.638 88.75 181.804C88.6875 177.818 90.2188 174.081 91.3125 170.313C88.125 170.095 84.875 169.908 81.75 169.099C79.0938 168.476 76.625 167.23 74.2188 166.016C71.6875 164.708 69.6875 162.621 67.875 160.473C66.0938 158.324 65.4063 155.552 64.7188 152.905C64.6563 152.033 64.0625 150.538 65.25 150.196C68.3438 149.729 71.4688 149.791 74.5938 149.822C78.9375 149.853 83.2188 150.756 87.4375 151.691C92.4688 152.999 97.25 155.459 101.031 159.04C102.156 158.199 103.406 157.545 104.688 157.016C104.625 154.587 105.125 152.189 105.438 149.791C106.344 143.345 109.531 137.49 113.344 132.29C113.906 131.542 114.844 130.888 115.844 131.169C116.969 131.542 117.906 132.352 118.656 133.255C120.5 135.715 122.313 138.393 122.844 141.476C123.938 146.334 123.469 151.379 122.625 156.237C124.125 156.673 125.719 156.985 126.969 157.95C128.094 158.791 128.625 160.13 129.25 161.313C130.094 161.251 130.875 161.656 131.406 162.248C132.938 163.867 133.563 166.171 133.594 168.351C134.25 168.818 134.906 169.254 135.656 169.503C139.25 170.687 143.031 171.403 146.625 172.586C148.25 173.427 150.063 172.493 151.781 172.711C153.219 172.804 155.188 173.147 155.625 174.766C155.938 176.323 156 178.098 155.031 179.438C154.344 180.403 154.594 181.711 154 182.738C152.594 185.977 149.406 187.815 146.781 189.932C146.063 190.617 144.813 190.617 144.469 191.645C143.438 193.887 141.531 195.569 139.75 197.219C137.906 198.589 135.719 199.492 133.469 199.866C131 200.178 128.469 200.115 126 199.928C127.25 206.375 129.313 212.634 131.406 218.862C139.094 215.592 145.625 210.018 150.969 203.728C159.75 193.14 163.938 178.939 162.594 165.268C161.75 156.486 158.625 147.954 153.625 140.698C147.188 131.324 137.688 124.006 126.844 120.394C117.656 117.311 107.563 116.875 98.0313 118.992Z" fill="black"/>
<path d="M173.188 139.203C176.094 137.584 178.969 135.871 181.875 134.221C187.438 145.307 190.531 157.639 190.531 170.064C190.563 173.894 190.281 177.725 189.781 181.555C186.531 180.714 183.25 179.842 180 178.97C181.719 165.393 179.281 151.41 173.188 139.203Z" fill="black"/>
<path d="M338.875 143.189C345.437 142.255 352.375 143.314 358.156 146.615C364.25 150.009 368.906 155.895 370.812 162.59C372.687 169.192 372.156 176.479 369.156 182.645C366.031 189.154 360.187 194.198 353.344 196.503C347.25 198.589 340.469 198.683 334.281 196.814C328.094 194.977 322.562 190.897 319.125 185.417C313.281 176.292 313.469 163.711 319.687 154.805C324.062 148.483 331.25 144.248 338.875 143.189ZM339.75 154.057C335.937 154.836 332.469 157.172 330.25 160.379C325.375 167.417 326.5 178.13 333.219 183.61C337.469 187.192 343.625 188.157 348.844 186.351C352.25 185.199 355.219 182.77 357.062 179.687C359.594 175.576 360.125 170.407 358.937 165.798C357.906 161.874 355.437 158.324 351.969 156.144C348.406 153.839 343.875 153.185 339.75 154.057Z" fill="black"/>
<path d="M418.844 143.189C425.031 142.317 431.531 143.189 437.125 146.054C442.281 148.67 446.562 152.967 449.094 158.168C453.656 167.448 452.625 179.282 446.187 187.41C442.281 192.455 436.531 196.005 430.312 197.375C423.625 198.87 416.437 198.216 410.25 195.257C405.187 192.828 400.906 188.811 398.219 183.891C395 178.005 394.125 170.967 395.531 164.427C396.781 158.604 400.031 153.217 404.625 149.417C408.625 146.054 413.656 143.937 418.844 143.189ZM419.75 154.026C416.281 154.711 413.062 156.642 410.844 159.414C405.594 165.891 405.937 176.199 411.687 182.271C415.437 186.351 421.406 188.001 426.812 186.88C431.312 186.008 435.281 183.019 437.406 179.002C440.875 172.493 439.937 163.773 434.719 158.448C430.937 154.493 425.062 152.905 419.75 154.026Z" fill="black"/>
<path d="M247.094 143.812C255.531 143.812 264 143.812 272.469 143.812C277.625 143.905 283.031 145.213 286.875 148.826C290.406 152.033 291.906 156.954 291.812 161.625C291.875 166.016 290.5 170.531 287.406 173.739C285.469 175.794 282.969 177.258 280.344 178.254C284.75 184.607 289.094 190.96 293.5 197.313C288.906 197.313 284.312 197.313 279.687 197.313C275.812 191.645 271.969 185.915 268.125 180.247C265.062 180.247 261.969 180.247 258.906 180.247V197.313C254.969 197.313 251.062 197.313 247.125 197.313C247.094 179.469 247.094 161.656 247.094 143.812ZM258.875 154.4C258.875 159.507 258.875 164.614 258.875 169.721H270.562C272.562 169.721 274.656 169.41 276.406 168.382C280.281 166.234 280.906 160.41 278.219 157.109C276.5 155.116 273.75 154.493 271.219 154.4C267.094 154.4 262.969 154.4 258.875 154.4Z" fill="black"/>
<path d="M477.125 143.812C485.75 143.812 494.406 143.781 503.031 143.812C508.063 143.937 513.5 145.462 516.844 149.449C519.687 152.718 520.25 157.452 519.219 161.562C518.344 165.019 515.719 167.666 512.719 169.441C515.375 170.469 518.031 171.87 519.906 174.081C521.531 175.981 522.375 178.472 522.594 180.932C522.938 184.514 522.25 188.344 519.938 191.178C517.219 194.572 512.937 196.254 508.75 196.97C505.031 197.624 501.219 197.437 497.469 197.468C490.687 197.468 483.937 197.468 477.156 197.468C477.125 179.562 477.125 161.687 477.125 143.812ZM488.719 153.964C488.719 157.732 488.719 161.5 488.719 165.268C491.937 165.268 495.156 165.268 498.375 165.268C500.906 165.393 503.688 165.299 505.875 163.867C508.156 162.403 508.562 159.071 507.312 156.798C506.062 154.743 503.469 154.12 501.219 153.995C497.031 153.933 492.875 153.995 488.719 153.964ZM488.719 175.14C488.719 179.033 488.719 182.956 488.719 186.88C493.625 186.88 498.5 186.911 503.406 186.88C505.875 186.787 508.781 186.257 510.25 184.046C511.562 181.804 511.313 178.441 509.125 176.822C507.313 175.483 504.969 175.233 502.781 175.171C498.094 175.109 493.406 175.14 488.719 175.14Z" fill="black"/>
<path d="M547.188 197.095C547.188 179.344 547.25 161.562 547.25 143.812C560.719 143.812 574.188 143.812 587.625 143.812C587.625 147.3 587.625 150.788 587.625 154.275C578.031 154.275 568.469 154.275 558.906 154.275C558.906 157.888 558.906 161.469 558.906 165.05C567.344 165.05 575.75 165.05 584.188 165.05C584.188 168.538 584.188 172.026 584.188 175.483C575.75 175.483 567.344 175.483 558.906 175.483V186.631C568.625 186.631 578.313 186.631 588.031 186.631C588.031 190.119 588.031 193.607 588.031 197.095C574.406 197.095 560.812 197.095 547.188 197.095Z" fill="black"/>
<path d="M609.594 143.874C624.406 143.874 639.187 143.874 654 143.874V154.68C648.594 154.68 643.187 154.68 637.781 154.68C637.781 168.85 637.781 183.05 637.781 197.219C633.812 197.219 629.875 197.219 625.937 197.219C625.937 183.05 625.937 168.85 625.937 154.68C620.5 154.68 615.062 154.68 609.625 154.68C609.594 151.099 609.594 147.487 609.594 143.874Z" fill="black"/>
<path d="M29 168.351C29.1875 164.396 29.5312 160.441 30.1875 156.549C33.4062 157.39 36.5937 158.262 39.8125 159.133C39.3125 163.805 38.8437 168.476 39.0312 173.147C39.25 180.06 40.5937 186.88 42.8437 193.42C43.2187 194.167 42.6562 194.884 41.9687 195.164C39.375 196.503 36.9687 198.185 34.3437 199.461C31.125 191.022 29.3125 182.053 29 172.991V168.351Z" fill="black"/>
<path d="M176 195.724C176.469 195.475 176.969 195.756 177.437 195.88C180.125 196.721 182.906 197.25 185.562 198.091C182.406 207.029 177.563 215.374 171.406 222.599C166.781 228.018 161.406 232.751 155.594 236.831C153.906 233.966 152.25 231.07 150.625 228.173C154.25 225.433 157.781 222.568 160.938 219.236C167.156 212.821 172.031 205.16 175.344 196.877C175.531 196.503 175.625 196.005 176 195.724Z" fill="black"/>
<path d="M42.3125 214.658C45.1563 212.914 48.0625 211.295 50.9063 209.613C58 220.17 67.9688 228.796 79.5313 234.246C78.6563 237.516 77.7813 240.786 76.9375 244.056C69.7813 240.817 63.0313 236.613 57.0625 231.443C51.375 226.554 46.4688 220.855 42.3125 214.658Z" fill="black"/>
<path d="M95.625 239.633C108.906 242.312 122.937 241.097 135.562 236.177C137.25 239.073 138.938 242 140.625 244.896C131.531 248.602 121.813 250.72 112 251H107.625C102.719 250.813 97.8125 250.253 93 249.287C93.875 246.049 94.7812 242.841 95.625 239.633Z" fill="black"/>
</g>
<defs>
<clipPath id="clip0_18_794">
<rect width="625" height="161" fill="white" transform="translate(29 90)"/>
</clipPath>
</defs>
</svg>
