<?xml version="1.0" standalone="no"?>
<!DOCTYPE svg PUBLIC "-//W3C//DTD SVG 20010904//EN"
 "http://www.w3.org/TR/2001/REC-SVG-20010904/DTD/svg10.dtd">
<svg version="1.0" xmlns="http://www.w3.org/2000/svg"
 width="512.000000pt" height="512.000000pt" viewBox="0 0 512.000000 512.000000"
 preserveAspectRatio="xMidYMid meet">

<g transform="translate(0.000000,512.000000) scale(0.100000,-0.100000)"
fill="#000000" stroke="none">
<path d="M2330 3964 c-113 -18 -298 -78 -401 -129 -285 -144 -507 -367 -645
-650 -96 -199 -132 -342 -141 -570 -14 -369 99 -699 338 -980 198 -234 493
-408 800 -470 122 -25 355 -30 489 -11 460 68 862 362 1066 781 96 199 132
342 141 570 14 369 -99 699 -338 980 -197 234 -492 407 -800 471 -109 22 -391
27 -509 8z m534 -148 c55 -14 103 -29 107 -33 7 -7 -389 -915 -405 -931 -4 -3
-9 -2 -12 1 -13 13 -413 920 -409 927 3 4 33 15 67 25 132 37 199 44 378 41
151 -3 189 -7 274 -30z m-696 -631 c121 -269 228 -507 238 -528 l18 -38 140 3
140 3 238 529 c131 291 239 531 241 533 7 7 153 -96 228 -160 79 -68 215 -227
225 -263 7 -27 -651 -1347 -669 -1341 -6 2 -68 131 -137 288 -69 156 -129 290
-133 297 -11 17 -270 17 -285 0 -5 -7 -64 -141 -131 -298 -69 -164 -126 -285
-133 -285 -13 0 -666 1297 -667 1325 -1 23 96 147 182 232 83 81 266 213 278
201 4 -5 106 -228 227 -498z m-22 -1723 c11 -2 27 5 36 15 9 10 96 197 194
416 98 219 182 396 188 394 6 -2 92 -185 192 -407 99 -222 188 -409 197 -414
12 -7 23 -8 35 -1 9 6 188 353 396 773 209 419 383 762 387 762 11 0 44 -116
63 -219 22 -118 21 -325 -3 -449 -85 -436 -379 -799 -785 -967 -290 -120 -649
-125 -936 -15 -361 140 -650 439 -770 798 -50 152 -64 242 -64 412 0 162 12
248 56 387 l21 68 386 -775 c309 -620 390 -776 407 -778z"/>
</g>
</svg>
